<svg width="12" height="12" viewBox="0 0 12 12" fill="none" xmlns="http://www.w3.org/2000/svg">
<path d="M11.6834 6.19307L6.43337 0.359735C6.21228 0.113568 5.78762 0.113568 5.56653 0.359735L0.316533 6.19307C0.240966 6.27683 0.191364 6.38075 0.173759 6.49218C0.156154 6.60361 0.171304 6.71775 0.217366 6.82074C0.3107 7.03132 0.519533 7.16665 0.74995 7.16665H1.91662V11.25C1.91662 11.4047 1.97807 11.5531 2.08747 11.6625C2.19687 11.7719 2.34524 11.8333 2.49995 11.8333H4.24995C4.40466 11.8333 4.55303 11.7719 4.66243 11.6625C4.77182 11.5531 4.83328 11.4047 4.83328 11.25V8.91665H7.16662V11.25C7.16662 11.4047 7.22807 11.5531 7.33747 11.6625C7.44687 11.7719 7.59524 11.8333 7.74995 11.8333H9.49995C9.65466 11.8333 9.80303 11.7719 9.91243 11.6625C10.0218 11.5531 10.0833 11.4047 10.0833 11.25V7.16665H11.25C11.3629 7.16713 11.4736 7.13473 11.5685 7.0734C11.6633 7.01207 11.7383 6.92446 11.7843 6.82126C11.8302 6.71805 11.8451 6.6037 11.8272 6.49216C11.8093 6.38061 11.7593 6.2767 11.6834 6.19307Z" fill="#E01C22"/>
</svg>
