<svg width="542" height="136" viewBox="0 0 542 136" fill="none" xmlns="http://www.w3.org/2000/svg">
<g clip-path="url(#clip0_456_339)">
<path d="M542 0H0V136H542V0Z" fill="white"/>
<path d="M152.913 52.4804L152.583 62.6607H147.721V56.542H145.654V52.4804H152.913ZM128.859 56.542V31.1616H134.052V52.463H144.23V31.1616H149.457V56.542H128.859ZM173.077 52.463V56.542H159.617V52.463H173.077ZM161.319 31.1616V56.542H156.109V31.1616H161.319ZM171.323 41.4984V45.473H159.617V41.4984H171.323ZM173.06 31.1616V35.258H159.617V31.1616H173.06ZM192.98 41.4984V45.5774H179.781V41.4984H192.98ZM181.327 31.1616V56.542H176.116V31.1616H181.327ZM196.697 31.1616V56.542H191.504V31.1616H196.697ZM212.015 31.1616V56.542H206.822V31.1616H212.015ZM219.796 31.1616V35.258H199.163V31.1616H219.796ZM232.613 47.495H226.17V43.416H232.613C233.609 43.416 234.419 43.2535 235.045 42.9277C235.67 42.5908 236.127 42.126 236.417 41.5334C236.706 40.9408 236.851 40.2723 236.851 39.5288C236.851 38.7733 236.706 38.0702 236.417 37.4194C236.127 36.7686 235.67 36.2457 235.045 35.8506C234.419 35.4556 233.609 35.258 232.613 35.258H227.976V56.542H222.766V31.1616H232.613C234.593 31.1616 236.289 31.5218 237.702 32.2423C239.126 32.9512 240.214 33.9332 240.967 35.1883C241.719 36.4433 242.096 37.8784 242.096 39.4937C242.096 41.1325 241.719 42.5503 240.967 43.7471C240.214 44.9443 239.126 45.8681 237.702 46.5188C236.289 47.1696 234.593 47.495 232.613 47.495ZM264.917 31.1616V56.542H259.724V31.1616H264.917ZM272.697 31.1616V35.258H252.065V31.1616H272.697ZM284.073 35.5021L277.196 56.542H271.655L281.051 31.1616H284.577L284.073 35.5021ZM289.787 56.542L282.892 35.5021L282.337 31.1616H285.897L295.345 56.542H289.787ZM289.475 47.0941V51.1904H276.119V47.0941H289.475ZM301.979 31.1616L306.738 40.0167L311.496 31.1616H317.454L310.107 43.7471L317.645 56.542H311.636L306.738 47.5123L301.84 56.542H295.796L303.351 43.7471L295.987 31.1616H301.979ZM340.586 43.2592V44.4618C340.586 46.391 340.325 48.1226 339.807 49.6567C339.285 51.1904 338.549 52.4977 337.6 53.5786C336.651 54.6479 335.516 55.4669 334.196 56.0364C332.887 56.6059 331.435 56.8905 329.837 56.8905C328.25 56.8905 326.797 56.6059 325.477 56.0364C324.169 55.4669 323.034 54.6479 322.074 53.5786C321.113 52.4977 320.366 51.1904 319.833 49.6567C319.312 48.1226 319.052 46.391 319.052 44.4618V43.2592C319.052 41.3185 319.312 39.5869 319.833 38.0644C320.354 36.5306 321.089 35.223 322.039 34.1425C323 33.0616 324.135 32.2365 325.443 31.6671C326.763 31.0976 328.216 30.8129 329.802 30.8129C331.4 30.8129 332.853 31.0976 334.161 31.6671C335.481 32.2365 336.616 33.0616 337.565 34.1425C338.526 35.223 339.269 36.5306 339.787 38.0644C340.322 39.5869 340.586 41.3185 340.586 43.2592ZM335.325 44.4618V43.2242C335.325 41.8761 335.203 40.6909 334.96 39.6682C334.717 38.6454 334.358 37.7856 333.883 37.0882C333.408 36.3909 332.83 35.868 332.147 35.5195C331.463 35.1591 330.682 34.9792 329.802 34.9792C328.922 34.9792 328.141 35.1591 327.457 35.5195C326.786 35.868 326.213 36.3909 325.738 37.0882C325.275 37.7856 324.922 38.6454 324.679 39.6682C324.435 40.6909 324.314 41.8761 324.314 43.2242V44.4618C324.314 45.7984 324.435 46.9836 324.679 48.0179C324.922 49.0406 325.281 49.9062 325.755 50.6151C326.23 51.3125 326.809 51.8412 327.492 52.2016C328.175 52.5616 328.957 52.7418 329.837 52.7418C330.717 52.7418 331.498 52.5616 332.181 52.2016C332.864 51.8412 333.438 51.3125 333.901 50.6151C334.364 49.9062 334.717 49.0406 334.96 48.0179C335.203 46.9836 335.325 45.7984 335.325 44.4618ZM360.942 31.1616V35.258H349.55V56.542H344.357V31.1616H360.942ZM374.021 47.495H367.578V43.416H374.021C375.017 43.416 375.826 43.2535 376.45 42.9277C377.076 42.5908 377.534 42.126 377.822 41.5334C378.113 40.9408 378.259 40.2723 378.259 39.5288C378.259 38.7733 378.113 38.0702 377.822 37.4194C377.534 36.7686 377.076 36.2457 376.45 35.8506C375.826 35.4556 375.017 35.258 374.021 35.258H369.383V56.542H364.173V31.1616H374.021C375.999 31.1616 377.696 31.5218 379.109 32.2423C380.532 32.9512 381.622 33.9332 382.374 35.1883C383.126 36.4433 383.502 37.8784 383.502 39.4937C383.502 41.1325 383.126 42.5503 382.374 43.7471C381.622 44.9443 380.532 45.8681 379.109 46.5188C377.696 47.1696 375.999 47.495 374.021 47.495ZM394.495 35.5021L387.618 56.542H382.08L391.473 31.1616H395L394.495 35.5021ZM400.21 56.542L393.316 35.5021L392.761 31.1616H396.321L405.769 56.542H400.21ZM399.898 47.0941V51.1904H386.541V47.0941H399.898ZM417.628 33.4451H423.258C424.762 33.4451 426.151 33.6949 427.425 34.1945C428.699 34.6827 429.803 35.3916 430.741 36.3212C431.693 37.2395 432.428 38.3493 432.946 39.6508C433.468 40.9408 433.729 42.3817 433.729 43.9739C433.729 45.5311 433.468 46.9489 432.946 48.227C432.428 49.4938 431.693 50.5805 430.741 51.4869C429.803 52.3933 428.699 53.0907 427.425 53.5786C426.151 54.0668 424.762 54.3109 423.258 54.3109H417.628C416.114 54.3109 414.718 54.0668 413.445 53.5786C412.171 53.0907 411.06 52.3991 410.108 51.5042C409.159 50.5978 408.418 49.5112 407.886 48.2447C407.364 46.9778 407.107 45.5658 407.107 44.0086C407.107 42.4167 407.364 40.9755 407.886 39.6855C408.418 38.384 409.159 37.2684 410.108 36.3389C411.06 35.409 412.171 34.6943 413.445 34.1945C414.718 33.6949 416.114 33.4451 417.628 33.4451ZM417.628 37.6288C416.517 37.6288 415.541 37.8726 414.695 38.3609C413.848 38.8488 413.194 39.5696 412.733 40.5222C412.269 41.4637 412.039 42.6258 412.039 44.0086C412.039 45.0082 412.171 45.8912 412.435 46.6582C412.716 47.4137 413.102 48.0471 413.6 48.5585C414.098 49.0695 414.688 49.4588 415.372 49.7264C416.056 49.9936 416.808 50.1272 417.628 50.1272H423.292C424.393 50.1272 425.352 49.8889 426.175 49.4126C427.008 48.9359 427.655 48.2389 428.119 47.3205C428.583 46.4025 428.814 45.287 428.814 43.9739C428.814 42.9396 428.682 42.0274 428.414 41.2369C428.15 40.4468 427.774 39.7844 427.286 39.25C426.798 38.7151 426.215 38.3143 425.531 38.047C424.86 37.7682 424.115 37.6288 423.292 37.6288H417.628ZM422.943 30.1157V57.5879H417.943V30.1157H422.943ZM442.171 48.3144L452.33 31.1616H457.54V56.542H452.33V39.3894L442.171 56.542H436.961V31.1616H442.171V48.3144ZM467.076 48.3144L477.235 31.1616H482.445V56.542H477.235V39.3894L467.076 56.542H461.866V31.1616H467.076V48.3144Z" fill="url(#paint0_linear_456_339)"/>
<path d="M132.601 77.2925L138.036 67.9361H141.218V82.246H138.036V72.8994L132.601 82.246H129.419V67.9361H132.601V77.2925ZM150.051 67.9361H152.694L156.122 78.1673L159.539 67.9361H162.183L157.189 82.246H155.044L150.051 67.9361ZM148.523 67.9361H151.216L151.715 78.5407V82.246H148.523V67.9361ZM161.018 67.9361H163.72V82.246H160.518V78.5407L161.018 67.9361ZM177.977 74.7765V75.4154C177.977 76.503 177.827 77.4792 177.527 78.3441C177.233 79.2091 176.812 79.9462 176.264 80.5555C175.722 81.1648 175.076 81.6333 174.325 81.9611C173.581 82.282 172.755 82.4425 171.847 82.4425C170.94 82.4425 170.111 82.282 169.36 81.9611C168.61 81.6333 167.957 81.1648 167.402 80.5555C166.854 79.9462 166.429 79.2091 166.129 78.3441C165.829 77.4792 165.678 76.503 165.678 75.4154V74.7765C165.678 73.6889 165.829 72.7127 166.129 71.8478C166.429 70.9763 166.85 70.2362 167.392 69.6265C167.941 69.0173 168.59 68.5521 169.341 68.2312C170.091 67.9034 170.921 67.7395 171.828 67.7395C172.735 67.7395 173.565 67.9034 174.315 68.2312C175.066 68.5521 175.712 69.0173 176.254 69.6265C176.802 70.2362 177.227 70.9763 177.527 71.8478C177.827 72.7127 177.977 73.6889 177.977 74.7765ZM174.756 75.4154V74.7568C174.756 74.0295 174.691 73.3876 174.56 72.8307C174.429 72.2673 174.24 71.7954 173.992 71.4153C173.744 71.0355 173.437 70.7502 173.072 70.5602C172.706 70.3637 172.291 70.2654 171.828 70.2654C171.345 70.2654 170.924 70.3637 170.565 70.5602C170.206 70.7502 169.902 71.0355 169.654 71.4153C169.412 71.7954 169.226 72.2673 169.096 72.8307C168.972 73.3876 168.91 74.0295 168.91 74.7568V75.4154C168.91 76.1362 168.972 76.7781 169.096 77.3418C169.226 77.8987 169.416 78.3703 169.664 78.7569C169.912 79.1435 170.216 79.4352 170.575 79.6317C170.94 79.8282 171.364 79.9265 171.847 79.9265C172.311 79.9265 172.722 79.8282 173.081 79.6317C173.447 79.4352 173.754 79.1435 174.002 78.7569C174.25 78.3703 174.436 77.8987 174.56 77.3418C174.691 76.7781 174.756 76.1362 174.756 75.4154ZM189.502 73.6957V76.1722H182.119V73.6957H189.502ZM183.128 67.9361V82.246H179.936V67.9361H183.128ZM191.706 67.9361V82.246H188.523V67.9361H191.706ZM197.111 77.2925L202.545 67.9361H205.728V82.246H202.545V72.8994L197.111 82.246H193.928V67.9361H197.111V77.2925ZM214.384 67.9361V82.246H211.202V67.9361H214.384ZM218.722 67.9361V70.4228H206.952V67.9361H218.722ZM231.911 74.7765V75.4154C231.911 76.503 231.761 77.4792 231.461 78.3441C231.167 79.2091 230.746 79.9462 230.198 80.5555C229.656 81.1648 229.01 81.6333 228.259 81.9611C227.515 82.282 226.689 82.4425 225.782 82.4425C224.874 82.4425 224.045 82.282 223.295 81.9611C222.544 81.6333 221.891 81.1648 221.336 80.5555C220.788 79.9462 220.363 79.2091 220.063 78.3441C219.763 77.4792 219.613 76.503 219.613 75.4154V74.7765C219.613 73.6889 219.763 72.7127 220.063 71.8478C220.363 70.9763 220.785 70.2362 221.327 69.6265C221.875 69.0173 222.524 68.5521 223.275 68.2312C224.026 67.9034 224.855 67.7395 225.762 67.7395C226.67 67.7395 227.499 67.9034 228.249 68.2312C229 68.5521 229.646 69.0173 230.188 69.6265C230.737 70.2362 231.161 70.9763 231.461 71.8478C231.761 72.7127 231.911 73.6889 231.911 74.7765ZM228.69 75.4154V74.7568C228.69 74.0295 228.625 73.3876 228.494 72.8307C228.364 72.2673 228.174 71.7954 227.926 71.4153C227.678 71.0355 227.371 70.7502 227.006 70.5602C226.64 70.3637 226.226 70.2654 225.762 70.2654C225.279 70.2654 224.858 70.3637 224.499 70.5602C224.14 70.7502 223.836 71.0355 223.588 71.4153C223.347 71.7954 223.161 72.2673 223.03 72.8307C222.906 73.3876 222.844 74.0295 222.844 74.7568V75.4154C222.844 76.1362 222.906 76.7781 223.03 77.3418C223.161 77.8987 223.35 78.3703 223.598 78.7569C223.846 79.1435 224.15 79.4352 224.509 79.6317C224.874 79.8282 225.299 79.9265 225.782 79.9265C226.245 79.9265 226.656 79.8282 227.016 79.6317C227.381 79.4352 227.688 79.1435 227.936 78.7569C228.184 78.3703 228.37 77.8987 228.494 77.3418C228.625 76.7781 228.69 76.1362 228.69 75.4154ZM239.491 77.2728H235.907V74.7864H239.491C240.019 74.7864 240.444 74.698 240.764 74.5212C241.09 74.344 241.328 74.1016 241.478 73.7939C241.635 73.4794 241.713 73.1255 241.713 72.7324C241.713 72.3261 241.635 71.9494 241.478 71.6023C241.328 71.2483 241.09 70.9634 240.764 70.7472C240.444 70.5309 240.019 70.4228 239.491 70.4228H237.062V82.246H233.87V67.9361H239.491C240.627 67.9361 241.599 68.1428 242.409 68.5555C243.225 68.9683 243.848 69.5351 244.279 70.2555C244.716 70.9699 244.935 71.7889 244.935 72.7127C244.935 73.6365 244.716 74.4392 244.279 75.1206C243.848 75.802 243.225 76.3327 242.409 76.7128C241.599 77.0861 240.627 77.2728 239.491 77.2728ZM249.909 77.2925L255.344 67.9361H258.526V82.246H255.344V72.8994L249.909 82.246H246.727V67.9361H249.909V77.2925ZM270.404 73.6957V76.1722H263.021V73.6957H270.404ZM264.029 67.9361V82.246H260.837V67.9361H264.029ZM272.607 67.9361V82.246H269.425V67.9361H272.607ZM284.465 67.9361V70.4228H278.159V82.246H274.977V67.9361H284.465ZM290.086 70.6588L286.404 82.246H282.996L288.274 67.9361H290.429L290.086 70.6588ZM293.141 82.246L289.449 70.6588L289.067 67.9361H291.251L296.548 82.246H293.141ZM292.984 76.9192V79.3958H285.552V76.9192H292.984ZM308.652 70.6588L304.97 82.246H301.562L306.84 67.9361H308.994L308.652 70.6588ZM311.706 82.246L308.015 70.6588L307.633 67.9361H309.817L315.114 82.246H311.706ZM311.55 76.9192V79.3958H304.118V76.9192H311.55ZM321.998 76.0641H318.336L318.316 73.9214H321.342C321.877 73.9214 322.311 73.8561 322.644 73.7249C322.984 73.594 323.232 73.4039 323.388 73.1551C323.545 72.8994 323.623 72.5849 323.623 72.2116C323.623 71.7855 323.545 71.4415 323.388 71.1797C323.232 70.9175 322.984 70.7275 322.644 70.6095C322.311 70.485 321.88 70.4228 321.352 70.4228H319.491V82.246H316.299V67.9361H321.352C322.207 67.9361 322.971 68.0149 323.643 68.172C324.315 68.3294 324.886 68.5719 325.357 68.8993C325.833 69.227 326.195 69.6364 326.443 70.128C326.692 70.6193 326.816 71.199 326.816 71.8675C326.816 72.4506 326.685 72.9946 326.424 73.4988C326.169 74.0034 325.758 74.4131 325.19 74.7276C324.622 75.0421 323.862 75.2124 322.909 75.2386L321.998 76.0641ZM321.871 82.246H317.523L318.679 79.7694H321.871C322.36 79.7694 322.758 79.6905 323.065 79.5335C323.372 79.376 323.597 79.1632 323.741 78.8946C323.884 78.626 323.956 78.3244 323.956 77.9905C323.956 77.5972 323.888 77.2565 323.751 76.9682C323.62 76.6798 323.411 76.4571 323.124 76.3001C322.843 76.1426 322.468 76.0641 321.998 76.0641H319.139L319.158 73.9214H322.654L323.398 74.7667C324.306 74.7473 325.03 74.8945 325.572 75.209C326.12 75.517 326.515 75.9233 326.757 76.4279C326.998 76.9321 327.119 77.4663 327.119 78.0296C327.119 78.9602 326.92 79.7398 326.522 80.3688C326.124 80.9914 325.533 81.4599 324.749 81.7741C323.973 82.0889 323.013 82.246 321.871 82.246ZM335.55 67.9361V82.246H332.367V67.9361H335.55ZM339.888 67.9361V70.4228H328.118V67.9361H339.888ZM353.079 74.7765V75.4154C353.079 76.503 352.927 77.4792 352.628 78.3441C352.334 79.2091 351.914 79.9462 351.365 80.5555C350.823 81.1648 350.176 81.6333 349.424 81.9611C348.682 82.282 347.855 82.4425 346.948 82.4425C346.04 82.4425 345.21 82.282 344.461 81.9611C343.709 81.6333 343.059 81.1648 342.503 80.5555C341.954 79.9462 341.531 79.2091 341.229 78.3441C340.928 77.4792 340.779 76.503 340.779 75.4154V74.7765C340.779 73.6889 340.928 72.7127 341.229 71.8478C341.531 70.9763 341.951 70.2362 342.493 69.6265C343.042 69.0173 343.689 68.5521 344.441 68.2312C345.193 67.9034 346.019 67.7395 346.927 67.7395C347.835 67.7395 348.665 67.9034 349.417 68.2312C350.166 68.5521 350.813 69.0173 351.355 69.6265C351.903 70.2362 352.327 70.9763 352.628 71.8478C352.927 72.7127 353.079 73.6889 353.079 74.7765ZM349.857 75.4154V74.7568C349.857 74.0295 349.79 73.3876 349.661 72.8307C349.529 72.2673 349.339 71.7954 349.092 71.4153C348.845 71.0355 348.536 70.7502 348.17 70.5602C347.808 70.3637 347.391 70.2654 346.927 70.2654C346.446 70.2654 346.023 70.3637 345.664 70.5602C345.305 70.7502 345.003 71.0355 344.756 71.4153C344.512 71.7954 344.326 72.2673 344.197 72.8307C344.072 73.3876 344.011 74.0295 344.011 74.7568V75.4154C344.011 76.1362 344.072 76.7781 344.197 77.3418C344.326 77.8987 344.515 78.3703 344.763 78.7569C345.013 79.1435 345.315 79.4352 345.674 79.6317C346.04 79.8282 346.463 79.9265 346.948 79.9265C347.412 79.9265 347.822 79.8282 348.181 79.6317C348.546 79.4352 348.855 79.1435 349.102 78.7569C349.349 78.3703 349.536 77.8987 349.661 77.3418C349.79 76.7781 349.857 76.1362 349.857 75.4154ZM360.931 67.9361V82.246H357.747V67.9361H360.931ZM365.267 67.9361V70.4228H353.499V67.9361H365.267ZM372.466 77.2728H368.882V74.7864H372.466C372.994 74.7864 373.418 74.698 373.739 74.5212C374.065 74.344 374.305 74.1016 374.454 73.7939C374.61 73.4794 374.688 73.1255 374.688 72.7324C374.688 72.3261 374.61 71.9494 374.454 71.6023C374.305 71.2483 374.065 70.9634 373.739 70.7472C373.418 70.5309 372.994 70.4228 372.466 70.4228H370.037V82.246H366.846V67.9361H372.466C373.6 67.9361 374.576 68.1428 375.382 68.5555C376.199 68.9683 376.822 69.5351 377.256 70.2555C377.693 70.9699 377.909 71.7889 377.909 72.7127C377.909 73.6365 377.693 74.4392 377.256 75.1206C376.822 75.802 376.199 76.3327 375.382 76.7128C374.576 77.0861 373.6 77.2728 372.466 77.2728ZM384.088 70.6588L380.406 82.246H376.998L382.276 67.9361H384.43L384.088 70.6588ZM387.144 82.246L383.451 70.6588L383.072 67.9361H385.253L390.551 82.246H387.144ZM386.988 76.9192V79.3958H379.556V76.9192H386.988ZM401.303 73.6957V76.1722H393.919V73.6957H401.303ZM394.928 67.9361V82.246H391.737V67.9361H394.928ZM403.505 67.9361V82.246H400.324V67.9361H403.505ZM414.071 77.4499H417.245C417.191 78.4325 416.923 79.3009 416.442 80.0543C415.965 80.8013 415.304 81.3878 414.454 81.8135C413.607 82.2327 412.597 82.4425 411.429 82.4425C410.494 82.4425 409.66 82.282 408.922 81.9611C408.183 81.6398 407.557 81.1811 407.042 80.5851C406.534 79.9823 406.141 79.2581 405.866 78.4132C405.599 77.5611 405.463 76.6013 405.463 75.5334V74.6585C405.463 73.5906 405.606 72.6308 405.887 71.7791C406.168 70.9274 406.568 70.2001 407.089 69.5973C407.611 68.9945 408.238 68.5324 408.969 68.2115C409.701 67.8905 410.517 67.7297 411.418 67.7297C412.631 67.7297 413.658 67.9493 414.494 68.3883C415.328 68.8272 415.975 69.43 416.432 70.1967C416.896 70.9634 417.174 71.8379 417.265 72.8208H414.081C414.057 72.2639 413.952 71.7954 413.769 71.4153C413.586 71.0287 413.305 70.7373 412.926 70.5408C412.547 70.3443 412.045 70.2457 411.418 70.2457C410.961 70.2457 410.561 70.331 410.213 70.5014C409.874 70.6717 409.589 70.9372 409.362 71.2973C409.139 71.6577 408.973 72.1164 408.864 72.6733C408.753 73.2237 408.695 73.8789 408.695 74.6392V75.5334C408.695 76.2868 408.746 76.9389 408.844 77.489C408.942 78.0395 409.098 78.4948 409.311 78.8552C409.535 79.2156 409.82 79.4842 410.165 79.6613C410.511 79.8381 410.931 79.9265 411.429 79.9265C411.998 79.9265 412.469 79.8381 412.848 79.6613C413.227 79.4777 413.519 79.2026 413.719 78.8358C413.922 78.4686 414.04 78.0069 414.071 77.4499ZM430.815 67.9361V82.246H427.624V70.4228H422.201V82.246H419.017V67.9361H430.815ZM445.063 74.7765V75.4154C445.063 76.503 444.914 77.4792 444.613 78.3441C444.318 79.2091 443.898 79.9462 443.349 80.5555C442.807 81.1648 442.163 81.6333 441.411 81.9611C440.666 82.282 439.84 82.4425 438.935 82.4425C438.027 82.4425 437.197 82.282 436.445 81.9611C435.697 81.6333 435.043 81.1648 434.487 80.5555C433.939 79.9462 433.515 79.2091 433.214 78.3441C432.916 77.4792 432.767 76.503 432.767 75.4154V74.7765C432.767 73.6889 432.916 72.7127 433.214 71.8478C433.515 70.9763 433.935 70.2362 434.477 69.6265C435.026 69.0173 435.676 68.5521 436.428 68.2312C437.177 67.9034 438.007 67.7395 438.915 67.7395C439.823 67.7395 440.649 67.9034 441.401 68.2312C442.153 68.5521 442.797 69.0173 443.339 69.6265C443.888 70.2362 444.314 70.9763 444.613 71.8478C444.914 72.7127 445.063 73.6889 445.063 74.7765ZM441.842 75.4154V74.7568C441.842 74.0295 441.777 73.3876 441.645 72.8307C441.516 72.2673 441.327 71.7954 441.079 71.4153C440.829 71.0355 440.524 70.7502 440.158 70.5602C439.792 70.3637 439.379 70.2654 438.915 70.2654C438.43 70.2654 438.01 70.3637 437.651 70.5602C437.292 70.7502 436.987 71.0355 436.74 71.4153C436.5 71.7954 436.313 72.2673 436.181 72.8307C436.059 73.3876 435.995 74.0295 435.995 74.7568V75.4154C435.995 76.1362 436.059 76.7781 436.181 77.3418C436.313 77.8987 436.503 78.3703 436.75 78.7569C436.997 79.1435 437.302 79.4352 437.661 79.6317C438.027 79.8282 438.451 79.9265 438.935 79.9265C439.396 79.9265 439.809 79.8282 440.168 79.6317C440.534 79.4352 440.839 79.1435 441.09 78.7569C441.337 78.3703 441.523 77.8987 441.645 77.3418C441.777 76.7781 441.842 76.1362 441.842 75.4154ZM452.641 77.2728H449.06V74.7864H452.641C453.173 74.7864 453.596 74.698 453.915 74.5212C454.243 74.344 454.48 74.1016 454.629 73.7939C454.789 73.4794 454.867 73.1255 454.867 72.7324C454.867 72.3261 454.789 71.9494 454.629 71.6023C454.48 71.2483 454.243 70.9634 453.915 70.7472C453.596 70.5309 453.173 70.4228 452.641 70.4228H450.216V82.246H447.021V67.9361H452.641C453.779 67.9361 454.751 68.1428 455.561 68.5555C456.377 68.9683 457.001 69.5351 457.431 70.2555C457.868 70.9699 458.088 71.7889 458.088 72.7127C458.088 73.6365 457.868 74.4392 457.431 75.1206C457.001 75.802 456.377 76.3327 455.561 76.7128C454.751 77.0861 453.779 77.2728 452.641 77.2728ZM466.665 67.9361V82.246H463.481V67.9361H466.665ZM471.001 67.9361V70.4228H459.233V67.9361H471.001ZM477.387 70.6588L473.704 82.246H470.297L475.574 67.9361H477.729L477.387 70.6588ZM480.442 82.246L476.75 70.6588L476.367 67.9361H478.552L483.85 82.246H480.442ZM480.286 76.9192V79.3958H472.854V76.9192H480.286Z" fill="url(#paint1_linear_456_339)"/>
<path d="M134.567 92.7017L131.364 102.782H128.399L132.991 90.3336H134.865L134.567 92.7017ZM137.224 102.782L134.013 92.7017L133.681 90.3336H135.58L140.189 102.782H137.224ZM137.088 98.1481V100.303H130.623V98.1481H137.088ZM146.177 97.4042H142.991L142.974 95.5403H145.606C146.072 95.5403 146.45 95.4832 146.739 95.3693C147.035 95.2554 147.251 95.0902 147.387 94.8736C147.523 94.6512 147.591 94.3775 147.591 94.0525C147.591 93.6822 147.523 93.383 147.387 93.1549C147.251 92.9267 147.035 92.7615 146.739 92.6592C146.45 92.5507 146.075 92.4966 145.615 92.4966H143.996V102.782H141.219V90.3336H145.615C146.359 90.3336 147.023 90.4019 147.608 90.5386C148.193 90.6756 148.69 90.8864 149.099 91.1713C149.513 91.4562 149.829 91.8126 150.045 92.2399C150.26 92.6677 150.368 93.1719 150.368 93.7533C150.368 94.2606 150.255 94.7338 150.027 95.1728C149.806 95.6114 149.448 95.9677 148.954 96.2414C148.46 96.5151 147.798 96.663 146.969 96.6861L146.177 97.4042ZM146.066 102.782H142.284L143.29 100.627H146.066C146.492 100.627 146.839 100.559 147.106 100.422C147.372 100.285 147.569 100.1 147.693 99.8665C147.818 99.6329 147.881 99.3708 147.881 99.0801C147.881 98.738 147.821 98.4415 147.702 98.1906C147.588 97.94 147.407 97.7462 147.157 97.6092C146.912 97.4725 146.586 97.4042 146.177 97.4042H143.69L143.707 95.5403H146.748L147.395 96.2757C148.184 96.2584 148.815 96.3866 149.286 96.6603C149.763 96.9282 150.107 97.2814 150.317 97.7204C150.527 98.1593 150.632 98.6238 150.632 99.1141C150.632 99.9236 150.459 100.602 150.113 101.149C149.766 101.691 149.252 102.098 148.571 102.372C147.895 102.645 147.06 102.782 146.066 102.782ZM157.967 90.3336V102.782H155.198V90.3336H157.967ZM161.74 90.3336V92.4966H151.501V90.3336H161.74ZM173.214 96.2842V96.8398C173.214 97.786 173.084 98.6353 172.822 99.3878C172.567 100.14 172.201 100.781 171.724 101.311C171.252 101.842 170.69 102.249 170.037 102.534C169.39 102.813 168.671 102.953 167.882 102.953C167.092 102.953 166.371 102.813 165.718 102.534C165.065 102.249 164.497 101.842 164.015 101.311C163.538 100.781 163.168 100.14 162.907 99.3878C162.646 98.6353 162.515 97.786 162.515 96.8398V96.2842C162.515 95.338 162.646 94.4887 162.907 93.7363C163.168 92.9781 163.535 92.3341 164.006 91.8041C164.483 91.274 165.048 90.8694 165.701 90.5899C166.354 90.305 167.076 90.1625 167.865 90.1625C168.654 90.1625 169.376 90.305 170.028 90.5899C170.682 90.8694 171.244 91.274 171.715 91.8041C172.192 92.3341 172.561 92.9781 172.822 93.7363C173.084 94.4887 173.214 95.338 173.214 96.2842ZM170.412 96.8398V96.2669C170.412 95.6345 170.355 95.0759 170.241 94.5914C170.128 94.1011 169.963 93.6907 169.748 93.3602C169.532 93.0294 169.265 92.7816 168.947 92.6163C168.629 92.4453 168.268 92.3596 167.865 92.3596C167.445 92.3596 167.078 92.4453 166.766 92.6163C166.454 92.7816 166.19 93.0294 165.974 93.3602C165.764 93.6907 165.602 94.1011 165.488 94.5914C165.38 95.0759 165.327 95.6345 165.327 96.2669V96.8398C165.327 97.4668 165.38 98.0254 165.488 98.5157C165.602 99.0002 165.767 99.4105 165.982 99.7468C166.198 100.083 166.462 100.337 166.774 100.508C167.092 100.679 167.462 100.764 167.882 100.764C168.285 100.764 168.643 100.679 168.955 100.508C169.273 100.337 169.54 100.083 169.756 99.7468C169.972 99.4105 170.134 99.0002 170.241 98.5157C170.355 98.0254 170.412 97.4668 170.412 96.8398ZM179.808 98.4558H176.69V96.2927H179.808C180.267 96.2927 180.637 96.2159 180.915 96.0619C181.199 95.9079 181.406 95.6971 181.537 95.4291C181.673 95.1554 181.741 94.8477 181.741 94.5057C181.741 94.1524 181.673 93.8247 181.537 93.5224C181.406 93.2147 181.199 92.9669 180.915 92.7788C180.637 92.5905 180.267 92.4966 179.808 92.4966H177.695V102.782H174.918V90.3336H179.808C180.796 90.3336 181.642 90.5131 182.346 90.8721C183.056 91.2312 183.598 91.7242 183.973 92.3511C184.353 92.9726 184.544 93.6849 184.544 94.4887C184.544 95.2925 184.353 95.9905 183.973 96.5834C183.598 97.1761 183.056 97.6378 182.346 97.9686C181.642 98.2933 180.796 98.4558 179.808 98.4558ZM188.871 98.4728L193.599 90.3336H196.367V102.782H193.599V94.6512L188.871 102.782H186.103V90.3336H188.871V98.4728ZM203.216 96.8228H201.189V95.3863H202.739C203.154 95.3863 203.486 95.321 203.736 95.1898C203.991 95.0585 204.176 94.8705 204.29 94.6254C204.409 94.3802 204.468 94.0953 204.468 93.7706C204.468 93.5081 204.4 93.2688 204.264 93.0522C204.133 92.8298 203.932 92.6534 203.659 92.5221C203.386 92.3912 203.037 92.3256 202.611 92.3256C202.282 92.3256 201.984 92.3797 201.717 92.4881C201.45 92.5963 201.24 92.7561 201.087 92.9669C200.933 93.1719 200.857 93.4228 200.857 93.7193H198.088C198.088 93.1607 198.207 92.6646 198.446 92.2314C198.69 91.7925 199.019 91.4222 199.434 91.12C199.854 90.8123 200.337 90.5787 200.882 90.4189C201.427 90.2537 202.004 90.171 202.611 90.171C203.31 90.171 203.943 90.2479 204.511 90.4019C205.079 90.5501 205.567 90.7725 205.976 91.0686C206.385 91.3651 206.697 91.7357 206.913 92.1801C207.135 92.619 207.245 93.1294 207.245 93.7108C207.245 94.1382 207.149 94.54 206.956 94.9161C206.768 95.2925 206.496 95.6229 206.138 95.9079C205.786 96.1928 205.36 96.4182 204.86 96.5834C204.366 96.7429 203.818 96.8228 203.216 96.8228ZM201.189 96.0619H203.216C203.886 96.0619 204.483 96.1329 205.005 96.2757C205.527 96.4182 205.967 96.6263 206.325 96.8996C206.689 97.1733 206.964 97.5123 207.152 97.9173C207.345 98.3161 207.441 98.7751 207.441 99.2936C207.441 99.875 207.322 100.394 207.084 100.85C206.845 101.3 206.507 101.682 206.07 101.996C205.638 102.309 205.127 102.545 204.537 102.705C203.952 102.865 203.31 102.944 202.611 102.944C202.043 102.944 201.478 102.876 200.916 102.739C200.36 102.597 199.854 102.38 199.4 102.089C198.951 101.799 198.591 101.425 198.318 100.969C198.045 100.513 197.909 99.9661 197.909 99.3279H200.686C200.686 99.607 200.769 99.858 200.933 100.08C201.098 100.303 201.325 100.479 201.615 100.61C201.904 100.736 202.236 100.798 202.611 100.798C203.043 100.798 203.412 100.73 203.719 100.593C204.025 100.456 204.258 100.271 204.417 100.037C204.576 99.7981 204.656 99.5329 204.656 99.2422C204.656 98.9233 204.616 98.6523 204.537 98.43C204.457 98.2022 204.335 98.0196 204.17 97.8829C204.011 97.7405 203.81 97.6378 203.565 97.5752C203.327 97.5069 203.051 97.4725 202.739 97.4725H201.189V96.0619ZM219.605 96.2842V96.8398C219.605 97.786 219.475 98.6353 219.214 99.3878C218.958 100.14 218.592 100.781 218.115 101.311C217.643 101.842 217.081 102.249 216.428 102.534C215.781 102.813 215.062 102.953 214.273 102.953C213.484 102.953 212.762 102.813 212.109 102.534C211.456 102.249 210.888 101.842 210.406 101.311C209.929 100.781 209.56 100.14 209.298 99.3878C209.037 98.6353 208.906 97.786 208.906 96.8398V96.2842C208.906 95.338 209.037 94.4887 209.298 93.7363C209.56 92.9781 209.926 92.3341 210.397 91.8041C210.874 91.274 211.439 90.8694 212.092 90.5899C212.745 90.305 213.467 90.1625 214.256 90.1625C215.045 90.1625 215.766 90.305 216.42 90.5899C217.073 90.8694 217.635 91.274 218.106 91.8041C218.583 92.3341 218.952 92.9781 219.214 93.7363C219.475 94.4887 219.605 95.338 219.605 96.2842ZM216.803 96.8398V96.2669C216.803 95.6345 216.746 95.0759 216.633 94.5914C216.519 94.1011 216.354 93.6907 216.138 93.3602C215.923 93.0294 215.656 92.7816 215.338 92.6163C215.02 92.4453 214.659 92.3596 214.256 92.3596C213.836 92.3596 213.469 92.4453 213.157 92.6163C212.845 92.7816 212.58 93.0294 212.365 93.3602C212.155 93.6907 211.993 94.1011 211.879 94.5914C211.772 95.0759 211.717 95.6345 211.717 96.2669V96.8398C211.717 97.4668 211.772 98.0254 211.879 98.5157C211.993 99.0002 212.158 99.4105 212.374 99.7468C212.589 100.083 212.853 100.337 213.166 100.508C213.484 100.679 213.853 100.764 214.273 100.764C214.676 100.764 215.034 100.679 215.346 100.508C215.664 100.337 215.931 100.083 216.147 99.7468C216.363 99.4105 216.525 99.0002 216.633 98.5157C216.746 98.0254 216.803 97.4668 216.803 96.8398ZM226.267 97.4042H223.081L223.064 95.5403H225.696C226.162 95.5403 226.539 95.4832 226.829 95.3693C227.124 95.2554 227.34 95.0902 227.476 94.8736C227.613 94.6512 227.681 94.3775 227.681 94.0525C227.681 93.6822 227.613 93.383 227.476 93.1549C227.34 92.9267 227.124 92.7615 226.829 92.6592C226.539 92.5507 226.165 92.4966 225.705 92.4966H224.086V102.782H221.309V90.3336H225.705C226.449 90.3336 227.113 90.4019 227.698 90.5386C228.283 90.6756 228.78 90.8864 229.189 91.1713C229.603 91.4562 229.918 91.8126 230.134 92.2399C230.35 92.6677 230.458 93.1719 230.458 93.7533C230.458 94.2606 230.344 94.7338 230.117 95.1728C229.896 95.6114 229.538 95.9677 229.044 96.2414C228.55 96.5151 227.888 96.663 227.059 96.6861L226.267 97.4042ZM226.156 102.782H222.374L223.379 100.627H226.156C226.582 100.627 226.929 100.559 227.195 100.422C227.462 100.285 227.658 100.1 227.783 99.8665C227.908 99.6329 227.971 99.3708 227.971 99.0801C227.971 98.738 227.911 98.4415 227.792 98.1906C227.678 97.94 227.496 97.7462 227.246 97.6092C227.002 97.4725 226.676 97.4042 226.267 97.4042H223.78L223.797 95.5403H226.837L227.485 96.2757C228.274 96.2584 228.905 96.3866 229.376 96.6603C229.853 96.9282 230.197 97.2814 230.407 97.7204C230.617 98.1593 230.722 98.6238 230.722 99.1141C230.722 99.9236 230.549 100.602 230.202 101.149C229.856 101.691 229.342 102.098 228.661 102.372C227.985 102.645 227.15 102.782 226.156 102.782ZM237.673 92.7017L234.47 102.782H231.506L236.097 90.3336H237.971L237.673 92.7017ZM240.331 102.782L237.119 92.7017L236.787 90.3336H238.687L243.295 102.782H240.331ZM240.194 98.1481V100.303H233.729V98.1481H240.194ZM252.648 95.3438V97.498H246.225V95.3438H252.648ZM247.103 90.3336V102.782H244.326V90.3336H247.103ZM254.565 90.3336V102.782H251.797V90.3336H254.565ZM264.949 95.3438V97.498H258.526V95.3438H264.949ZM259.403 90.3336V102.782H256.626V90.3336H259.403ZM266.866 90.3336V102.782H264.097V90.3336H266.866ZM274.234 92.7017L271.031 102.782H268.066L272.658 90.3336H274.532L274.234 92.7017ZM276.892 102.782L273.68 92.7017L273.348 90.3336H275.248L279.856 102.782H276.892ZM276.755 98.1481V100.303H270.29V98.1481H276.755ZM287.412 98.3361H284.073L283.204 97.9771C282.21 97.6636 281.452 97.1961 280.929 96.5749C280.407 95.948 280.146 95.1527 280.146 94.1895C280.146 93.3402 280.333 92.6306 280.708 92.0604C281.088 91.4906 281.625 91.0601 282.318 90.7694C283.011 90.4787 283.831 90.3336 284.78 90.3336H289.192V102.782H286.407V92.4966H284.78C284.132 92.4966 283.658 92.6619 283.357 92.9924C283.062 93.3232 282.914 93.7961 282.914 94.4119C282.914 94.8678 282.982 95.2381 283.118 95.5233C283.26 95.8025 283.468 96.0078 283.74 96.1387C284.018 96.2642 284.362 96.3267 284.771 96.3267H287.403L287.412 98.3361ZM285.035 97.2587L282.343 102.782H279.328L282.011 97.2587H285.035ZM296.731 90.3336H299.031L302.012 99.2337L304.985 90.3336H307.285L302.941 102.782H301.075L296.731 90.3336ZM295.402 90.3336H297.745L298.179 99.5588V102.782H295.402V90.3336ZM306.271 90.3336H308.623V102.782H305.837V99.5588L306.271 90.3336ZM315.991 92.7017L312.788 102.782H309.823L314.415 90.3336H316.289L315.991 92.7017ZM318.649 102.782L315.437 92.7017L315.105 90.3336H317.005L321.613 102.782H318.649ZM318.512 98.1481V100.303H312.047V98.1481H318.512ZM329.603 98.6098H332.363C332.318 99.4646 332.085 100.22 331.665 100.875C331.25 101.525 330.674 102.035 329.935 102.406C329.197 102.77 328.32 102.953 327.303 102.953C326.491 102.953 325.764 102.813 325.122 102.534C324.481 102.255 323.936 101.856 323.487 101.337C323.044 100.813 322.703 100.183 322.465 99.4476C322.232 98.7067 322.116 97.8717 322.116 96.9425V96.1816C322.116 95.2523 322.238 94.4173 322.482 93.6764C322.726 92.9356 323.075 92.3028 323.53 91.7782C323.984 91.2539 324.529 90.8521 325.165 90.5729C325.801 90.2934 326.511 90.154 327.295 90.154C328.351 90.154 329.243 90.3448 329.97 90.7266C330.697 91.1088 331.259 91.633 331.656 92.2998C332.059 92.9669 332.301 93.7278 332.38 94.5829H329.612C329.589 94.0984 329.498 93.6907 329.339 93.3602C329.18 93.0236 328.936 92.77 328.606 92.5993C328.277 92.4283 327.84 92.3426 327.295 92.3426C326.897 92.3426 326.548 92.4167 326.247 92.565C325.952 92.7132 325.705 92.9441 325.506 93.2576C325.313 93.571 325.168 93.9699 325.072 94.4544C324.975 94.9334 324.927 95.5033 324.927 96.1646V96.9425C324.927 97.598 324.969 98.1651 325.054 98.6438C325.14 99.1226 325.276 99.5187 325.463 99.8321C325.656 100.146 325.904 100.38 326.204 100.533C326.506 100.687 326.872 100.764 327.303 100.764C327.797 100.764 328.209 100.687 328.538 100.533C328.868 100.374 329.121 100.134 329.296 99.8151C329.473 99.4959 329.575 99.094 329.603 98.6098ZM339.424 90.3336V102.782H336.657V90.3336H339.424ZM343.198 90.3336V92.4966H332.959V90.3336H343.198ZM353.005 100.627V102.782H346.402V100.627H353.005ZM347.347 90.3336V102.782H344.57V90.3336H347.347ZM352.151 95.3438V97.4297H346.402V95.3438H352.151ZM353.011 90.3336V92.4966H346.402V90.3336H353.011ZM359.255 98.4558H356.138V96.2927H359.255C359.715 96.2927 360.084 96.2159 360.362 96.0619C360.647 95.9079 360.853 95.6971 360.986 95.4291C361.121 95.1554 361.189 94.8477 361.189 94.5057C361.189 94.1524 361.121 93.8247 360.986 93.5224C360.853 93.2147 360.647 92.9669 360.362 92.7788C360.084 92.5905 359.715 92.4966 359.255 92.4966H357.144V102.782H354.366V90.3336H359.255C360.244 90.3336 361.091 90.5131 361.795 90.8721C362.503 91.2312 363.045 91.7242 363.421 92.3511C363.801 92.9726 363.99 93.6849 363.99 94.4887C363.99 95.2925 363.801 95.9905 363.421 96.5834C363.045 97.1761 362.503 97.6378 361.795 97.9686C361.091 98.2933 360.244 98.4558 359.255 98.4558ZM372.808 98.6098H375.569C375.521 99.4646 375.291 100.22 374.871 100.875C374.454 101.525 373.878 102.035 373.14 102.406C372.401 102.77 371.524 102.953 370.508 102.953C369.695 102.953 368.97 102.813 368.326 102.534C367.686 102.255 367.141 101.856 366.693 101.337C366.25 100.813 365.908 100.183 365.67 99.4476C365.437 98.7067 365.322 97.8717 365.322 96.9425V96.1816C365.322 95.2523 365.443 94.4173 365.687 93.6764C365.931 92.9356 366.28 92.3028 366.734 91.7782C367.188 91.2539 367.733 90.8521 368.37 90.5729C369.007 90.2934 369.715 90.154 370.501 90.154C371.555 90.154 372.449 90.3448 373.174 90.7266C373.902 91.1088 374.464 91.633 374.861 92.2998C375.264 92.9669 375.504 93.7278 375.586 94.5829H372.818C372.794 94.0984 372.703 93.6907 372.544 93.3602C372.384 93.0236 372.141 92.77 371.812 92.5993C371.483 92.4283 371.046 92.3426 370.501 92.3426C370.101 92.3426 369.752 92.4167 369.451 92.565C369.156 92.7132 368.909 92.9441 368.712 93.2576C368.519 93.571 368.374 93.9699 368.275 94.4544C368.181 94.9334 368.133 95.5033 368.133 96.1646V96.9425C368.133 97.598 368.174 98.1651 368.258 98.6438C368.343 99.1226 368.482 99.5187 368.668 99.8321C368.861 100.146 369.109 100.38 369.41 100.533C369.712 100.687 370.078 100.764 370.508 100.764C371.002 100.764 371.416 100.687 371.744 100.533C372.073 100.374 372.327 100.134 372.503 99.8151C372.679 99.4959 372.781 99.094 372.808 98.6098ZM379.878 90.3336V102.782H377.11V90.3336H379.878ZM387.11 90.3336L382.503 97.7462H379.332L378.993 95.2581H381.053L383.753 90.3336H387.11ZM384.241 102.782L381.053 97.276L383.021 95.3608L387.527 102.782H384.241ZM393.543 92.7017L390.338 102.782H387.374L391.968 90.3336H393.841L393.543 92.7017ZM396.199 102.782L392.987 92.7017L392.655 90.3336H394.556L399.163 102.782H396.199ZM396.063 98.1481V100.303H389.6V98.1481H396.063ZM406.72 98.3361H403.38L402.513 97.9771C401.517 97.6636 400.762 97.1961 400.236 96.5749C399.715 95.948 399.454 95.1527 399.454 94.1895C399.454 93.3402 399.64 92.6306 400.016 92.0604C400.396 91.4906 400.934 91.0601 401.625 90.7694C402.32 90.4787 403.14 90.3336 404.088 90.3336H408.502V102.782H405.714V92.4966H404.088C403.441 92.4966 402.967 92.6619 402.665 92.9924C402.371 93.3232 402.222 93.7961 402.222 94.4119C402.222 94.8678 402.289 95.2381 402.428 95.5233C402.567 95.8025 402.777 96.0078 403.048 96.1387C403.326 96.2642 403.671 96.3267 404.078 96.3267H406.71L406.72 98.3361ZM404.342 97.2587L401.652 102.782H398.638L401.32 97.2587H404.342ZM419.599 98.4558H416.483V96.2927H419.599C420.06 96.2927 420.429 96.2159 420.707 96.0619C420.992 95.9079 421.198 95.6971 421.33 95.4291C421.466 95.1554 421.534 94.8477 421.534 94.5057C421.534 94.1524 421.466 93.8247 421.33 93.5224C421.198 93.2147 420.992 92.9669 420.707 92.7788C420.429 92.5905 420.06 92.4966 419.599 92.4966H417.486V102.782H414.711V90.3336H419.599C420.589 90.3336 421.435 90.5131 422.137 90.8721C422.848 91.2312 423.39 91.7242 423.766 92.3511C424.145 92.9726 424.335 93.6849 424.335 94.4887C424.335 95.2925 424.145 95.9905 423.766 96.5834C423.39 97.1761 422.848 97.6378 422.137 97.9686C421.435 98.2933 420.589 98.4558 419.599 98.4558ZM430.785 91.4192H433.715C434.457 91.4192 435.145 91.5419 435.768 91.7871C436.398 92.0319 436.947 92.3824 437.411 92.8387C437.878 93.2946 438.237 93.8417 438.495 94.4802C438.749 95.1184 438.878 95.8337 438.878 96.6263C438.878 97.3957 438.749 98.0937 438.495 98.7207C438.237 99.3422 437.878 99.878 437.411 100.328C436.947 100.773 436.398 101.115 435.768 101.354C435.145 101.588 434.457 101.705 433.715 101.705H430.785C430.036 101.705 429.345 101.588 428.715 101.354C428.085 101.115 427.533 100.773 427.062 100.328C426.595 99.8835 426.236 99.3507 425.982 98.7295C425.724 98.108 425.595 97.4127 425.595 96.6433C425.595 95.8511 425.724 95.1357 425.982 94.4972C426.236 93.8587 426.595 93.3089 427.062 92.8472C427.533 92.3855 428.085 92.0319 428.715 91.7871C429.345 91.5419 430.036 91.4192 430.785 91.4192ZM430.785 93.6509C430.284 93.6509 429.84 93.7618 429.447 93.9841C429.061 94.2065 428.756 94.54 428.536 94.9844C428.319 95.4234 428.211 95.9762 428.211 96.6433C428.211 97.1104 428.275 97.5239 428.4 97.8829C428.529 98.2362 428.712 98.5299 428.946 98.7635C429.183 98.9971 429.457 99.1739 429.772 99.2936C430.084 99.4132 430.423 99.4731 430.785 99.4731H433.732C434.227 99.4731 434.66 99.3677 435.036 99.1569C435.416 98.9403 435.714 98.6183 435.931 98.1906C436.144 97.7632 436.252 97.2417 436.252 96.6263C436.252 96.1302 436.191 95.6971 436.066 95.3265C435.941 94.9562 435.765 94.6482 435.538 94.403C435.317 94.1524 435.053 93.9644 434.745 93.839C434.44 93.7135 434.101 93.6509 433.732 93.6509H430.785ZM433.58 89.8205V103.295H430.921V89.8205H433.58ZM450.751 90.3251V102.782H448.085V93.3687L445.206 94.2493V92.1801L450.487 90.3251H450.751ZM463.129 95.4461V97.6606C463.129 98.5728 463.027 99.3619 462.821 100.029C462.624 100.696 462.333 101.246 461.953 101.679C461.577 102.112 461.13 102.434 460.609 102.645C460.09 102.85 459.518 102.953 458.888 102.953C458.38 102.953 457.909 102.887 457.472 102.756C457.035 102.625 456.642 102.423 456.289 102.149C455.941 101.87 455.642 101.522 455.395 101.106C455.145 100.69 454.951 100.194 454.816 99.6186C454.684 99.043 454.619 98.3902 454.619 97.6606V95.4461C454.619 94.5227 454.718 93.7305 454.918 93.0695C455.121 92.4082 455.415 91.8612 455.795 91.4277C456.174 90.9945 456.625 90.6756 457.14 90.4702C457.661 90.2652 458.241 90.1625 458.871 90.1625C459.375 90.1625 459.843 90.2282 460.277 90.3591C460.714 90.4903 461.107 90.6926 461.459 90.9663C461.811 91.2397 462.109 91.5844 462.353 92.0006C462.604 92.4167 462.793 92.9128 462.926 93.4884C463.061 94.0583 463.129 94.7111 463.129 95.4461ZM460.47 97.9941V95.0956C460.47 94.6682 460.446 94.2976 460.395 93.9841C460.348 93.6649 460.28 93.3942 460.189 93.1719C460.104 92.9499 459.995 92.77 459.867 92.6333C459.735 92.4966 459.586 92.3967 459.416 92.3341C459.25 92.2658 459.067 92.2314 458.871 92.2314C458.62 92.2314 458.396 92.2828 458.197 92.3855C457.997 92.4881 457.831 92.6503 457.695 92.8727C457.556 93.0893 457.451 93.383 457.38 93.7533C457.309 94.1181 457.275 94.5655 457.275 95.0956V97.9941C457.275 98.4215 457.299 98.7948 457.346 99.1141C457.397 99.4333 457.465 99.707 457.55 99.9348C457.641 100.157 457.749 100.339 457.882 100.482C458.01 100.619 458.163 100.719 458.332 100.781C458.505 100.844 458.688 100.875 458.888 100.875C459.135 100.875 459.359 100.827 459.552 100.73C459.745 100.627 459.907 100.465 460.046 100.243C460.189 100.015 460.293 99.7155 460.361 99.3449C460.432 98.9743 460.47 98.5242 460.47 97.9941ZM473.291 100.704V102.782H464.721V101.021L468.725 96.763C469.101 96.3298 469.399 95.948 469.619 95.6172C469.846 95.2867 470.012 94.9875 470.114 94.7196C470.216 94.4459 470.266 94.1953 470.266 93.9671C470.266 93.5965 470.209 93.2831 470.087 93.0267C469.975 92.77 469.806 92.5735 469.585 92.4368C469.365 92.2998 469.094 92.2314 468.776 92.2314C468.437 92.2314 468.142 92.3198 467.898 92.4966C467.655 92.6731 467.468 92.9182 467.336 93.2317C467.207 93.5398 467.14 93.8903 467.14 94.2833H464.467C464.467 93.5255 464.646 92.8356 465.012 92.2144C465.375 91.5875 465.883 91.0887 466.537 90.7181C467.19 90.3421 467.953 90.154 468.827 90.154C469.724 90.154 470.476 90.2965 471.086 90.5814C471.692 90.8663 472.153 91.274 472.465 91.8041C472.776 92.3341 472.932 92.9726 472.932 93.7193C472.932 94.1409 472.865 94.5485 472.729 94.9419C472.597 95.335 472.407 95.7256 472.157 96.1132C471.909 96.5008 471.608 96.8969 471.255 97.3015C470.903 97.7007 470.507 98.1223 470.063 98.567L468.19 100.704H473.291ZM481.188 90.1795H481.598V92.2998H481.442C480.845 92.2998 480.3 92.3855 479.809 92.5565C479.318 92.7275 478.898 92.9811 478.539 93.3174C478.179 93.6479 477.905 94.0583 477.712 94.5485C477.526 95.033 477.431 95.5916 477.431 96.2244V98.3446C477.431 98.772 477.468 99.1453 477.543 99.4646C477.621 99.7781 477.736 100.04 477.881 100.251C478.037 100.456 478.22 100.613 478.437 100.722C478.65 100.824 478.898 100.875 479.169 100.875C479.413 100.875 479.636 100.821 479.843 100.713C480.046 100.605 480.222 100.451 480.371 100.251C480.517 100.052 480.632 99.8209 480.71 99.5588C480.791 99.2909 480.829 99.0002 480.829 98.6867C480.829 98.3562 480.788 98.0566 480.703 97.7887C480.622 97.5154 480.507 97.2815 480.354 97.0877C480.205 96.8939 480.022 96.746 479.809 96.6433C479.592 96.5348 479.355 96.4808 479.091 96.4808C478.718 96.4808 478.393 96.5664 478.122 96.7371C477.848 96.9081 477.638 97.1278 477.492 97.3957C477.343 97.6636 477.265 97.937 477.262 98.2165L476.553 97.6266C476.553 97.239 476.631 96.8568 476.784 96.4808C476.943 96.0989 477.167 95.7542 477.458 95.4461C477.746 95.1327 478.102 94.8848 478.522 94.7026C478.948 94.5142 479.433 94.4204 479.978 94.4204C480.551 94.4204 481.056 94.5315 481.496 94.7536C481.933 94.9701 482.299 95.2724 482.593 95.66C482.895 96.0476 483.118 96.5008 483.268 97.0193C483.42 97.5324 483.495 98.0825 483.495 98.6697C483.495 99.2739 483.389 99.8379 483.179 100.363C482.976 100.881 482.688 101.334 482.312 101.722C481.936 102.109 481.489 102.411 480.967 102.628C480.449 102.845 479.873 102.953 479.236 102.953C478.579 102.953 477.976 102.836 477.431 102.602C476.892 102.369 476.421 102.035 476.018 101.602C475.619 101.163 475.31 100.639 475.09 100.029C474.873 99.419 474.765 98.735 474.765 97.9771V96.9768C474.765 95.9391 474.924 95.0045 475.243 94.1722C475.564 93.3402 476.015 92.6275 476.587 92.0349C477.167 91.4365 477.848 90.9775 478.633 90.6583C479.416 90.339 480.266 90.1795 481.188 90.1795Z" fill="black"/>
<path d="M99.9425 71.6492L81.9776 89.6804L64.0126 71.6492C60.4595 68.0829 58.0398 63.5392 57.0594 58.5925C56.0791 53.6462 56.5825 48.519 58.5052 43.8596C60.4283 39.1999 63.6847 35.2175 67.8625 32.4155C72.0407 29.6135 76.9525 28.118 81.9776 28.118C87.0026 28.118 91.9144 29.6135 96.0926 32.4155C100.27 35.2175 103.527 39.1999 105.45 43.8596C107.373 48.519 107.876 53.6462 106.896 58.5925C105.915 63.5392 103.496 68.0829 99.9425 71.6492ZM81.9776 59.2844C83.4748 59.2844 84.9111 58.6874 85.9697 57.6245C87.0287 56.562 87.6235 55.1208 87.6235 53.6176C87.6235 52.1148 87.0287 50.6736 85.9697 49.6107C84.9111 48.5482 83.4748 47.9512 81.9776 47.9512C80.4803 47.9512 79.0443 48.5482 77.9854 49.6107C76.9265 50.6736 76.3316 52.1148 76.3316 53.6176C76.3316 55.1208 76.9265 56.562 77.9854 57.6245C79.0443 58.6874 80.4803 59.2844 81.9776 59.2844Z" fill="#067BCD"/>
<path fill-rule="evenodd" clip-rule="evenodd" d="M57.0087 59.0005C57.6398 62.1843 58.8667 65.2011 60.6089 67.898C64.6607 74.171 99.9794 71.7686 105.487 43.979C103.564 39.3196 100.22 35.6255 96.0418 32.8235C91.8637 30.0216 86.9518 28.526 81.9268 28.526C76.9018 28.526 71.9899 30.0216 67.8117 32.8235C63.6339 35.6255 60.3775 39.608 58.4544 44.2677C56.5317 48.927 56.0283 54.0542 57.0087 59.0005ZM85.9189 58.0326C84.8604 59.0954 83.424 59.6924 81.9268 59.6924C80.4295 59.6924 78.9935 59.0954 77.9346 58.0326C76.8757 56.9701 76.2808 55.5288 76.2808 54.0257C76.2808 52.5229 76.8757 51.0816 77.9346 50.0188C78.9935 48.9563 80.4295 48.3592 81.9268 48.3592C83.424 48.3592 84.8604 48.9563 85.9189 50.0188C86.9779 51.0816 87.5727 52.5229 87.5727 54.0257C87.5727 55.5288 86.9779 56.9701 85.9189 58.0326Z" fill="url(#paint2_linear_456_339)"/>
<path d="M63.9615 72.0572C62.6953 70.7863 61.573 69.3913 60.6086 67.898H58.4541C53.4525 74.2914 59.1435 77.1304 68.1193 76.2304L63.9615 72.0572Z" fill="white"/>
<path d="M60.6089 67.898C61.5733 69.3913 62.6956 70.7863 63.9618 72.0572L68.1197 76.2304C72.2646 75.8146 77.1104 74.6014 81.9268 72.5727C82.8272 72.1932 83.7262 71.7856 84.6198 71.349C84.6212 71.3487 84.6225 71.348 84.6239 71.3473C93.9212 66.8052 104.559 57.8452 106.283 45.407C106.15 45.0371 105.637 44.3435 105.487 43.979C99.9794 71.7686 64.6607 74.171 60.6089 67.898Z" fill="white"/>
<path fill-rule="evenodd" clip-rule="evenodd" d="M86.3058 85.6932L99.8917 72.0572C103.445 68.4909 105.865 63.9472 106.845 59.0005C107.749 54.4411 107.85 49.7658 106.283 45.407C104.559 57.8452 93.9212 66.8052 84.6239 71.3473C84.6225 71.348 84.6212 71.3486 84.6198 71.349L84.6239 71.3473C84.7716 71.281 84.7838 71.9787 84.8051 73.2152C84.8491 75.7516 84.9321 80.5552 86.3058 85.6932ZM78.4715 86.224C80.9444 82.0515 81.3847 79.679 81.9267 72.5726C77.1104 74.6014 72.2646 75.8145 68.1196 76.2304L78.4715 86.224Z" fill="url(#paint3_linear_456_339)"/>
<path d="M84.62 71.349C83.7264 71.7856 82.8273 72.1932 81.9269 72.5727C81.3849 79.679 80.9446 82.0515 78.4717 86.224L81.9269 90.0884L86.306 85.6932C84.9323 80.5552 84.8493 75.7516 84.8053 73.2152C84.7839 71.9787 84.7718 71.281 84.6241 71.3473L84.62 71.349Z" fill="url(#paint4_linear_456_339)"/>
<path d="M81.9605 63.206C86.2729 63.206 89.7687 59.7506 89.7687 55.488C89.7687 51.2255 86.2729 47.77 81.9605 47.77C77.6482 47.77 74.1523 51.2255 74.1523 55.488C74.1523 59.7506 77.6482 63.206 81.9605 63.206Z" fill="url(#paint5_linear_456_339)"/>
<path d="M45.1216 40.2081H64.0181L65.4717 42.7231H46.5752L45.1216 40.2081ZM47.0596 45.238H65.9561L67.41 47.753H48.5131L47.0596 45.238ZM78.5538 58.651C80.1626 58.651 81.461 57.5277 81.461 56.1361C81.461 54.7444 80.1626 53.6211 78.5538 53.6211C76.9455 53.6211 75.6467 54.7444 75.6467 56.1361C75.6467 57.5277 76.9455 58.651 78.5538 58.651ZM81.461 43.5615H76.6158V47.753H85.2597L81.461 43.5615ZM59.1729 58.651C60.7813 58.651 62.0801 57.5277 62.0801 56.1361C62.0801 54.7444 60.7813 53.6211 59.1729 53.6211C57.5642 53.6211 56.2658 54.7444 56.2658 56.1361C56.2658 57.5277 57.5642 58.651 59.1729 58.651ZM82.4302 41.0465L88.2445 47.753V56.1361H84.3681C84.3681 58.9193 81.7713 61.166 78.5538 61.166C75.3367 61.166 72.7395 58.9193 72.7395 56.1361H64.9872C64.9872 58.9193 62.3707 61.166 59.1729 61.166C55.9555 61.166 53.3586 58.9193 53.3586 56.1361H49.4823V50.268H53.3586V52.783H54.8315C55.8976 51.7603 57.448 51.1061 59.1729 51.1061C60.8979 51.1061 62.4483 51.7603 63.5144 52.783H72.7395V37.6931H49.4823C49.4823 35.8323 51.2072 34.34 53.3586 34.34H76.6158V41.0465H82.4302Z" fill="white"/>
<path d="M66.6659 33.49H63.8882C63.7385 33.49 63.6172 33.6118 63.6172 33.762V34.068C63.6172 34.2182 63.7385 34.34 63.8882 34.34H66.6659C66.8156 34.34 66.9369 34.2182 66.9369 34.068V33.762C66.9369 33.6118 66.8156 33.49 66.6659 33.49Z" fill="#1675C2"/>
<path d="M62.5669 37.706H58.3325C58.1829 37.706 58.0615 37.8278 58.0615 37.978V38.284C58.0615 38.4342 58.1829 38.556 58.3325 38.556H62.5669C62.7166 38.556 62.8379 38.4342 62.8379 38.284V37.978C62.8379 37.8278 62.7166 37.706 62.5669 37.706Z" fill="#2170B8"/>
<path d="M64.3626 39.61H51.9644C51.8147 39.61 51.6934 39.7318 51.6934 39.882V39.95C51.6934 40.1002 51.8147 40.222 51.9644 40.222H64.3626C64.5123 40.222 64.6336 40.1002 64.6336 39.95V39.882C64.6336 39.7318 64.5123 39.61 64.3626 39.61Z" fill="#266DB4"/>
<path d="M66.2594 42.704H51.4561C51.3064 42.704 51.1851 42.8258 51.1851 42.976V43.044C51.1851 43.1942 51.3064 43.316 51.4561 43.316H66.2594C66.4091 43.316 66.5304 43.1942 66.5304 43.044V42.976C66.5304 42.8258 66.4091 42.704 66.2594 42.704Z" fill="#2F69AD"/>
<path d="M68.4953 44.71H53.6919C53.5422 44.71 53.4209 44.8318 53.4209 44.982V45.05C53.4209 45.2002 53.5422 45.322 53.6919 45.322H68.4953C68.6449 45.322 68.7663 45.2002 68.7663 45.05V44.982C68.7663 44.8318 68.6449 44.71 68.4953 44.71Z" fill="#3667A8"/>
<path d="M70.4601 47.77H55.6567C55.5071 47.77 55.3857 47.8918 55.3857 48.042V48.11C55.3857 48.2602 55.5071 48.382 55.6567 48.382H70.4601C70.6098 48.382 70.7311 48.2602 70.7311 48.11V48.042C70.7311 47.8918 70.6098 47.77 70.4601 47.77Z" fill="#3E63A2"/>
<path d="M84.0305 91.63V107.583H80.4824V91.63H84.0305ZM88.8665 91.63V94.402H75.7446V91.63H88.8665Z" fill="url(#paint6_linear_456_339)"/>
<path d="M83.7253 91.936V107.889H80.1772V91.936H83.7253ZM88.5613 91.936V94.708H75.4395V91.936H88.5613Z" fill="url(#paint7_linear_456_339)"/>
<path d="M73.2595 95.5281L73.0414 102.113H69.7115V98.2675H68.4673V95.5281H73.2595ZM57.7905 98.2675V82.314H61.3386V95.5064H67.3863V82.314H70.956V98.2675H57.7905Z" fill="url(#paint8_linear_456_339)"/>
<path d="M72.9885 95.8001L72.7704 102.385H69.4405V98.5395H68.1963V95.8001H72.9885ZM57.5195 98.5395V82.586H61.0676V95.7783H67.1153V82.586H70.685V98.5395H57.5195Z" fill="url(#paint9_linear_456_339)"/>
<path d="M95.6721 82.28H98.6199L102.441 93.6864L106.251 82.28H109.198L103.631 98.2335H101.24L95.6721 82.28ZM93.9692 82.28H96.9712L97.5281 94.1025V98.2335H93.9692V82.28ZM107.899 82.28H110.912V98.2335H107.342V94.1025L107.899 82.28Z" fill="url(#paint10_linear_456_339)"/>
<path d="M94.8928 82.484H97.8406L101.661 93.8903L105.471 82.484H108.419L102.851 98.4375H100.461L94.8928 82.484ZM93.1899 82.484H96.1919L96.7489 94.3065V98.4375H93.1899V82.484ZM107.12 82.484H110.133V98.4375H106.563V94.3065L107.12 82.484Z" fill="url(#paint11_linear_456_339)"/>
</g>
<defs>
<linearGradient id="paint0_linear_456_339" x1="320.83" y1="23.426" x2="320.863" y2="140.593" gradientUnits="userSpaceOnUse">
<stop stop-color="#067BCD"/>
<stop offset="1"/>
</linearGradient>
<linearGradient id="paint1_linear_456_339" x1="321.595" y1="63.58" x2="321.595" y2="98.226" gradientUnits="userSpaceOnUse">
<stop stop-color="#067BCD"/>
<stop offset="1"/>
</linearGradient>
<linearGradient id="paint2_linear_456_339" x1="81.2069" y1="28.526" x2="81.2069" y2="105.298" gradientUnits="userSpaceOnUse">
<stop stop-color="#067BCD"/>
<stop offset="1" stop-color="#E01C22"/>
</linearGradient>
<linearGradient id="paint3_linear_456_339" x1="82.0097" y1="28.526" x2="82.0097" y2="90.0884" gradientUnits="userSpaceOnUse">
<stop stop-color="#067BCD"/>
<stop offset="0.71875" stop-color="#E01C22"/>
</linearGradient>
<linearGradient id="paint4_linear_456_339" x1="82.0099" y1="28.526" x2="82.0099" y2="90.0884" gradientUnits="userSpaceOnUse">
<stop stop-color="#067BCD"/>
<stop offset="0.71875" stop-color="#E01C22"/>
</linearGradient>
<linearGradient id="paint5_linear_456_339" x1="81.9775" y1="38.862" x2="81.9775" y2="90.899" gradientUnits="userSpaceOnUse">
<stop stop-color="#067BCD"/>
<stop offset="1" stop-color="#E01C22"/>
</linearGradient>
<linearGradient id="paint6_linear_456_339" x1="100.996" y1="86.7755" x2="100.996" y2="117.137" gradientUnits="userSpaceOnUse">
<stop stop-color="#067BCD"/>
<stop offset="1"/>
</linearGradient>
<linearGradient id="paint7_linear_456_339" x1="100.691" y1="87.0815" x2="100.691" y2="117.443" gradientUnits="userSpaceOnUse">
<stop stop-color="#067BCD"/>
<stop offset="1" stop-color="#E01C22"/>
</linearGradient>
<linearGradient id="paint8_linear_456_339" x1="82.376" y1="77.4595" x2="82.376" y2="107.822" gradientUnits="userSpaceOnUse">
<stop stop-color="#067BCD"/>
<stop offset="1"/>
</linearGradient>
<linearGradient id="paint9_linear_456_339" x1="82.105" y1="77.7315" x2="82.105" y2="108.093" gradientUnits="userSpaceOnUse">
<stop stop-color="#067BCD"/>
<stop offset="1" stop-color="#E01C22"/>
</linearGradient>
<linearGradient id="paint10_linear_456_339" x1="118.337" y1="77.4255" x2="118.337" y2="107.788" gradientUnits="userSpaceOnUse">
<stop stop-color="#067BCD"/>
<stop offset="1"/>
</linearGradient>
<linearGradient id="paint11_linear_456_339" x1="117.557" y1="77.6295" x2="117.557" y2="107.991" gradientUnits="userSpaceOnUse">
<stop stop-color="#067BCD"/>
<stop offset="1" stop-color="#E01C22"/>
</linearGradient>
<clipPath id="clip0_456_339">
<rect width="542" height="136" fill="white"/>
</clipPath>
</defs>
</svg>
