<svg width="433" height="136" viewBox="0 0 433 136" fill="none" xmlns="http://www.w3.org/2000/svg">
<g clip-path="url(#clip0_456_339)">
<path d="M101.913 52.4804L101.583 62.6607H96.7206V56.542H94.6539V52.4804H101.913ZM77.8594 56.542V31.1616H83.0524V52.463H93.2298V31.1616H98.4574V56.542H77.8594ZM122.077 52.463V56.542H108.617V52.463H122.077ZM110.319 31.1616V56.542H105.109V31.1616H110.319ZM120.323 41.4984V45.473H108.617V41.4984H120.323ZM122.06 31.1616V35.258H108.617V31.1616H122.06ZM141.98 41.4984V45.5774H128.781V41.4984H141.98ZM130.327 31.1616V56.542H125.116V31.1616H130.327ZM145.697 31.1616V56.542H140.504V31.1616H145.697ZM161.015 31.1616V56.542H155.822V31.1616H161.015ZM168.796 31.1616V35.258H148.163V31.1616H168.796ZM181.613 47.495H175.17V43.416H181.613C182.609 43.416 183.419 43.2535 184.045 42.9277C184.67 42.5908 185.127 42.126 185.417 41.5334C185.706 40.9408 185.851 40.2723 185.851 39.5288C185.851 38.7733 185.706 38.0702 185.417 37.4194C185.127 36.7686 184.67 36.2457 184.045 35.8506C183.419 35.4556 182.609 35.258 181.613 35.258H176.976V56.542H171.766V31.1616H181.613C183.593 31.1616 185.289 31.5218 186.702 32.2423C188.126 32.9512 189.214 33.9332 189.967 35.1883C190.719 36.4433 191.096 37.8784 191.096 39.4937C191.096 41.1325 190.719 42.5503 189.967 43.7471C189.214 44.9443 188.126 45.8681 186.702 46.5188C185.289 47.1696 183.593 47.495 181.613 47.495ZM213.917 31.1616V56.542H208.724V31.1616H213.917ZM221.697 31.1616V35.258H201.065V31.1616H221.697ZM233.073 35.5021L226.196 56.542H220.655L230.051 31.1616H233.577L233.073 35.5021ZM238.787 56.542L231.892 35.5021L231.337 31.1616H234.897L244.345 56.542H238.787ZM238.475 47.0941V51.1904H225.119V47.0941H238.475ZM250.979 31.1616L255.738 40.0167L260.496 31.1616H266.454L259.107 43.7471L266.645 56.542H260.636L255.738 47.5123L250.84 56.542H244.796L252.351 43.7471L244.987 31.1616H250.979ZM289.586 43.2592V44.4618C289.586 46.391 289.325 48.1226 288.807 49.6567C288.285 51.1904 287.549 52.4977 286.6 53.5786C285.651 54.6479 284.516 55.4669 283.196 56.0364C281.887 56.6059 280.435 56.8905 278.837 56.8905C277.25 56.8905 275.797 56.6059 274.477 56.0364C273.169 55.4669 272.034 54.6479 271.074 53.5786C270.113 52.4977 269.366 51.1904 268.833 49.6567C268.312 48.1226 268.052 46.391 268.052 44.4618V43.2592C268.052 41.3185 268.312 39.5869 268.833 38.0644C269.354 36.5306 270.089 35.223 271.039 34.1425C272 33.0616 273.135 32.2365 274.443 31.6671C275.763 31.0976 277.216 30.8129 278.802 30.8129C280.4 30.8129 281.853 31.0976 283.161 31.6671C284.481 32.2365 285.616 33.0616 286.565 34.1425C287.526 35.223 288.269 36.5306 288.787 38.0644C289.322 39.5869 289.586 41.3185 289.586 43.2592ZM284.325 44.4618V43.2242C284.325 41.8761 284.203 40.6909 283.96 39.6682C283.717 38.6454 283.358 37.7856 282.883 37.0882C282.408 36.3909 281.83 35.868 281.147 35.5195C280.463 35.1591 279.682 34.9792 278.802 34.9792C277.922 34.9792 277.141 35.1591 276.457 35.5195C275.786 35.868 275.213 36.3909 274.738 37.0882C274.275 37.7856 273.922 38.6454 273.679 39.6682C273.435 40.6909 273.314 41.8761 273.314 43.2242V44.4618C273.314 45.7984 273.435 46.9836 273.679 48.0179C273.922 49.0406 274.281 49.9062 274.755 50.6151C275.23 51.3125 275.809 51.8412 276.492 52.2016C277.175 52.5616 277.957 52.7418 278.837 52.7418C279.717 52.7418 280.498 52.5616 281.181 52.2016C281.864 51.8412 282.438 51.3125 282.901 50.6151C283.364 49.9062 283.717 49.0406 283.96 48.0179C284.203 46.9836 284.325 45.7984 284.325 44.4618ZM309.942 31.1616V35.258H298.55V56.542H293.357V31.1616H309.942ZM323.021 47.495H316.578V43.416H323.021C324.017 43.416 324.826 43.2535 325.45 42.9277C326.076 42.5908 326.534 42.126 326.822 41.5334C327.113 40.9408 327.259 40.2723 327.259 39.5288C327.259 38.7733 327.113 38.0702 326.822 37.4194C326.534 36.7686 326.076 36.2457 325.45 35.8506C324.826 35.4556 324.017 35.258 323.021 35.258H318.383V56.542H313.173V31.1616H323.021C324.999 31.1616 326.696 31.5218 328.109 32.2423C329.532 32.9512 330.622 33.9332 331.374 35.1883C332.126 36.4433 332.502 37.8784 332.502 39.4937C332.502 41.1325 332.126 42.5503 331.374 43.7471C330.622 44.9443 329.532 45.8681 328.109 46.5188C326.696 47.1696 324.999 47.495 323.021 47.495ZM343.495 35.5021L336.618 56.542H331.08L340.473 31.1616H344L343.495 35.5021ZM349.21 56.542L342.316 35.5021L341.761 31.1616H345.321L354.769 56.542H349.21ZM348.898 47.0941V51.1904H335.541V47.0941H348.898ZM366.628 33.4451H372.258C373.762 33.4451 375.151 33.6949 376.425 34.1945C377.699 34.6827 378.803 35.3916 379.741 36.3212C380.693 37.2395 381.428 38.3493 381.946 39.6508C382.468 40.9408 382.729 42.3817 382.729 43.9739C382.729 45.5311 382.468 46.9489 381.946 48.227C381.428 49.4938 380.693 50.5805 379.741 51.4869C378.803 52.3933 377.699 53.0907 376.425 53.5786C375.151 54.0668 373.762 54.3109 372.258 54.3109H366.628C365.114 54.3109 363.718 54.0668 362.445 53.5786C361.171 53.0907 360.06 52.3991 359.108 51.5042C358.159 50.5978 357.418 49.5112 356.886 48.2447C356.364 46.9778 356.107 45.5658 356.107 44.0086C356.107 42.4167 356.364 40.9755 356.886 39.6855C357.418 38.384 358.159 37.2684 359.108 36.3389C360.06 35.409 361.171 34.6943 362.445 34.1945C363.718 33.6949 365.114 33.4451 366.628 33.4451ZM366.628 37.6288C365.517 37.6288 364.541 37.8726 363.695 38.3609C362.848 38.8488 362.194 39.5696 361.733 40.5222C361.269 41.4637 361.039 42.6258 361.039 44.0086C361.039 45.0082 361.171 45.8912 361.435 46.6582C361.716 47.4137 362.102 48.0471 362.6 48.5585C363.098 49.0695 363.688 49.4588 364.372 49.7264C365.056 49.9936 365.808 50.1272 366.628 50.1272H372.292C373.393 50.1272 374.352 49.8889 375.175 49.4126C376.008 48.9359 376.655 48.2389 377.119 47.3205C377.583 46.4025 377.814 45.287 377.814 43.9739C377.814 42.9396 377.682 42.0274 377.414 41.2369C377.15 40.4468 376.774 39.7844 376.286 39.25C375.798 38.7151 375.215 38.3143 374.531 38.047C373.86 37.7682 373.115 37.6288 372.292 37.6288H366.628ZM371.943 30.1157V57.5879H366.943V30.1157H371.943ZM391.171 48.3144L401.33 31.1616H406.54V56.542H401.33V39.3894L391.171 56.542H385.961V31.1616H391.171V48.3144ZM416.076 48.3144L426.235 31.1616H431.445V56.542H426.235V39.3894L416.076 56.542H410.866V31.1616H416.076V48.3144Z" fill="url(#paint0_linear_456_339)"/>
<path d="M81.6012 77.2925L87.0357 67.9361H90.2183V82.246H87.0357V72.8994L81.6012 82.246H78.4189V67.9361H81.6012V77.2925ZM99.0505 67.9361H101.694L105.122 78.1673L108.539 67.9361H111.183L106.189 82.246H104.044L99.0505 67.9361ZM97.5231 67.9361H100.216L100.715 78.5407V82.246H97.5231V67.9361ZM110.018 67.9361H112.72V82.246H109.518V78.5407L110.018 67.9361ZM126.977 74.7765V75.4154C126.977 76.503 126.827 77.4792 126.527 78.3441C126.233 79.2091 125.812 79.9462 125.264 80.5555C124.722 81.1648 124.076 81.6333 123.325 81.9611C122.581 82.282 121.755 82.4425 120.847 82.4425C119.94 82.4425 119.111 82.282 118.36 81.9611C117.61 81.6333 116.957 81.1648 116.402 80.5555C115.854 79.9462 115.429 79.2091 115.129 78.3441C114.829 77.4792 114.678 76.503 114.678 75.4154V74.7765C114.678 73.6889 114.829 72.7127 115.129 71.8478C115.429 70.9763 115.85 70.2362 116.392 69.6265C116.941 69.0173 117.59 68.5521 118.341 68.2312C119.091 67.9034 119.921 67.7395 120.828 67.7395C121.735 67.7395 122.565 67.9034 123.315 68.2312C124.066 68.5521 124.712 69.0173 125.254 69.6265C125.802 70.2362 126.227 70.9763 126.527 71.8478C126.827 72.7127 126.977 73.6889 126.977 74.7765ZM123.756 75.4154V74.7568C123.756 74.0295 123.691 73.3876 123.56 72.8307C123.429 72.2673 123.24 71.7954 122.992 71.4153C122.744 71.0355 122.437 70.7502 122.072 70.5602C121.706 70.3637 121.291 70.2654 120.828 70.2654C120.345 70.2654 119.924 70.3637 119.565 70.5602C119.206 70.7502 118.902 71.0355 118.654 71.4153C118.412 71.7954 118.226 72.2673 118.096 72.8307C117.972 73.3876 117.91 74.0295 117.91 74.7568V75.4154C117.91 76.1362 117.972 76.7781 118.096 77.3418C118.226 77.8987 118.416 78.3703 118.664 78.7569C118.912 79.1435 119.216 79.4352 119.575 79.6317C119.94 79.8282 120.364 79.9265 120.847 79.9265C121.311 79.9265 121.722 79.8282 122.081 79.6317C122.447 79.4352 122.754 79.1435 123.002 78.7569C123.25 78.3703 123.436 77.8987 123.56 77.3418C123.691 76.7781 123.756 76.1362 123.756 75.4154ZM138.502 73.6957V76.1722H131.119V73.6957H138.502ZM132.128 67.9361V82.246H128.936V67.9361H132.128ZM140.706 67.9361V82.246H137.523V67.9361H140.706ZM146.111 77.2925L151.545 67.9361H154.728V82.246H151.545V72.8994L146.111 82.246H142.928V67.9361H146.111V77.2925ZM163.384 67.9361V82.246H160.202V67.9361H163.384ZM167.722 67.9361V70.4228H155.952V67.9361H167.722ZM180.911 74.7765V75.4154C180.911 76.503 180.761 77.4792 180.461 78.3441C180.167 79.2091 179.746 79.9462 179.198 80.5555C178.656 81.1648 178.01 81.6333 177.259 81.9611C176.515 82.282 175.689 82.4425 174.782 82.4425C173.874 82.4425 173.045 82.282 172.295 81.9611C171.544 81.6333 170.891 81.1648 170.336 80.5555C169.788 79.9462 169.363 79.2091 169.063 78.3441C168.763 77.4792 168.613 76.503 168.613 75.4154V74.7765C168.613 73.6889 168.763 72.7127 169.063 71.8478C169.363 70.9763 169.785 70.2362 170.327 69.6265C170.875 69.0173 171.524 68.5521 172.275 68.2312C173.026 67.9034 173.855 67.7395 174.762 67.7395C175.67 67.7395 176.499 67.9034 177.249 68.2312C178 68.5521 178.646 69.0173 179.188 69.6265C179.737 70.2362 180.161 70.9763 180.461 71.8478C180.761 72.7127 180.911 73.6889 180.911 74.7765ZM177.69 75.4154V74.7568C177.69 74.0295 177.625 73.3876 177.494 72.8307C177.364 72.2673 177.174 71.7954 176.926 71.4153C176.678 71.0355 176.371 70.7502 176.006 70.5602C175.64 70.3637 175.226 70.2654 174.762 70.2654C174.279 70.2654 173.858 70.3637 173.499 70.5602C173.14 70.7502 172.836 71.0355 172.588 71.4153C172.347 71.7954 172.161 72.2673 172.03 72.8307C171.906 73.3876 171.844 74.0295 171.844 74.7568V75.4154C171.844 76.1362 171.906 76.7781 172.03 77.3418C172.161 77.8987 172.35 78.3703 172.598 78.7569C172.846 79.1435 173.15 79.4352 173.509 79.6317C173.874 79.8282 174.299 79.9265 174.782 79.9265C175.245 79.9265 175.656 79.8282 176.016 79.6317C176.381 79.4352 176.688 79.1435 176.936 78.7569C177.184 78.3703 177.37 77.8987 177.494 77.3418C177.625 76.7781 177.69 76.1362 177.69 75.4154ZM188.491 77.2728H184.907V74.7864H188.491C189.019 74.7864 189.444 74.698 189.764 74.5212C190.09 74.344 190.328 74.1016 190.478 73.7939C190.635 73.4794 190.713 73.1255 190.713 72.7324C190.713 72.3261 190.635 71.9494 190.478 71.6023C190.328 71.2483 190.09 70.9634 189.764 70.7472C189.444 70.5309 189.019 70.4228 188.491 70.4228H186.062V82.246H182.87V67.9361H188.491C189.626 67.9361 190.599 68.1428 191.409 68.5555C192.225 68.9683 192.848 69.5351 193.279 70.2555C193.716 70.9699 193.935 71.7889 193.935 72.7127C193.935 73.6365 193.716 74.4392 193.279 75.1206C192.848 75.802 192.225 76.3327 191.409 76.7128C190.599 77.0861 189.626 77.2728 188.491 77.2728ZM198.909 77.2925L204.344 67.9361H207.526V82.246H204.344V72.8994L198.909 82.246H195.727V67.9361H198.909V77.2925ZM219.404 73.6957V76.1722H212.021V73.6957H219.404ZM213.029 67.9361V82.246H209.837V67.9361H213.029ZM221.607 67.9361V82.246H218.425V67.9361H221.607ZM233.465 67.9361V70.4228H227.159V82.246H223.977V67.9361H233.465ZM239.086 70.6588L235.404 82.246H231.996L237.274 67.9361H239.429L239.086 70.6588ZM242.141 82.246L238.449 70.6588L238.067 67.9361H240.251L245.548 82.246H242.141ZM241.984 76.9192V79.3958H234.552V76.9192H241.984ZM257.652 70.6588L253.97 82.246H250.562L255.84 67.9361H257.994L257.652 70.6588ZM260.706 82.246L257.015 70.6588L256.633 67.9361H258.817L264.114 82.246H260.706ZM260.55 76.9192V79.3958H253.118V76.9192H260.55ZM270.998 76.0641H267.336L267.316 73.9214H270.342C270.877 73.9214 271.311 73.8561 271.644 73.7249C271.984 73.594 272.232 73.4039 272.388 73.1551C272.545 72.8994 272.623 72.5849 272.623 72.2116C272.623 71.7855 272.545 71.4415 272.388 71.1797C272.232 70.9175 271.984 70.7275 271.644 70.6095C271.311 70.485 270.88 70.4228 270.352 70.4228H268.491V82.246H265.299V67.9361H270.352C271.207 67.9361 271.971 68.0149 272.643 68.172C273.315 68.3294 273.886 68.5719 274.357 68.8993C274.833 69.227 275.195 69.6364 275.443 70.128C275.692 70.6193 275.816 71.199 275.816 71.8675C275.816 72.4506 275.685 72.9946 275.424 73.4988C275.169 74.0034 274.758 74.4131 274.19 74.7276C273.622 75.0421 272.862 75.2124 271.909 75.2386L270.998 76.0641ZM270.871 82.246H266.523L267.679 79.7694H270.871C271.36 79.7694 271.758 79.6905 272.065 79.5335C272.372 79.376 272.597 79.1632 272.741 78.8946C272.884 78.626 272.956 78.3244 272.956 77.9905C272.956 77.5972 272.888 77.2565 272.751 76.9682C272.62 76.6798 272.411 76.4571 272.124 76.3001C271.843 76.1426 271.468 76.0641 270.998 76.0641H268.139L268.158 73.9214H271.654L272.398 74.7667C273.306 74.7473 274.03 74.8945 274.572 75.209C275.12 75.517 275.515 75.9233 275.757 76.4279C275.998 76.9321 276.119 77.4663 276.119 78.0296C276.119 78.9602 275.92 79.7398 275.522 80.3688C275.124 80.9914 274.533 81.4599 273.749 81.7741C272.973 82.0889 272.013 82.246 270.871 82.246ZM284.55 67.9361V82.246H281.367V67.9361H284.55ZM288.888 67.9361V70.4228H277.118V67.9361H288.888ZM302.079 74.7765V75.4154C302.079 76.503 301.927 77.4792 301.628 78.3441C301.334 79.2091 300.914 79.9462 300.365 80.5555C299.823 81.1648 299.176 81.6333 298.424 81.9611C297.682 82.282 296.855 82.4425 295.948 82.4425C295.04 82.4425 294.21 82.282 293.461 81.9611C292.709 81.6333 292.059 81.1648 291.503 80.5555C290.954 79.9462 290.531 79.2091 290.229 78.3441C289.928 77.4792 289.779 76.503 289.779 75.4154V74.7765C289.779 73.6889 289.928 72.7127 290.229 71.8478C290.531 70.9763 290.951 70.2362 291.493 69.6265C292.042 69.0173 292.689 68.5521 293.441 68.2312C294.193 67.9034 295.019 67.7395 295.927 67.7395C296.835 67.7395 297.665 67.9034 298.417 68.2312C299.166 68.5521 299.813 69.0173 300.355 69.6265C300.903 70.2362 301.327 70.9763 301.628 71.8478C301.927 72.7127 302.079 73.6889 302.079 74.7765ZM298.857 75.4154V74.7568C298.857 74.0295 298.79 73.3876 298.661 72.8307C298.529 72.2673 298.339 71.7954 298.092 71.4153C297.845 71.0355 297.536 70.7502 297.17 70.5602C296.808 70.3637 296.391 70.2654 295.927 70.2654C295.446 70.2654 295.023 70.3637 294.664 70.5602C294.305 70.7502 294.003 71.0355 293.756 71.4153C293.512 71.7954 293.326 72.2673 293.197 72.8307C293.072 73.3876 293.011 74.0295 293.011 74.7568V75.4154C293.011 76.1362 293.072 76.7781 293.197 77.3418C293.326 77.8987 293.515 78.3703 293.763 78.7569C294.013 79.1435 294.315 79.4352 294.674 79.6317C295.04 79.8282 295.463 79.9265 295.948 79.9265C296.412 79.9265 296.822 79.8282 297.181 79.6317C297.547 79.4352 297.855 79.1435 298.102 78.7569C298.349 78.3703 298.536 77.8987 298.661 77.3418C298.79 76.7781 298.857 76.1362 298.857 75.4154ZM309.931 67.9361V82.246H306.747V67.9361H309.931ZM314.267 67.9361V70.4228H302.499V67.9361H314.267ZM321.466 77.2728H317.882V74.7864H321.466C321.994 74.7864 322.418 74.698 322.739 74.5212C323.065 74.344 323.305 74.1016 323.454 73.7939C323.61 73.4794 323.688 73.1255 323.688 72.7324C323.688 72.3261 323.61 71.9494 323.454 71.6023C323.305 71.2483 323.065 70.9634 322.739 70.7472C322.418 70.5309 321.994 70.4228 321.466 70.4228H319.037V82.246H315.846V67.9361H321.466C322.6 67.9361 323.576 68.1428 324.382 68.5555C325.199 68.9683 325.822 69.5351 326.256 70.2555C326.693 70.9699 326.909 71.7889 326.909 72.7127C326.909 73.6365 326.693 74.4392 326.256 75.1206C325.822 75.802 325.199 76.3327 324.382 76.7128C323.576 77.0861 322.6 77.2728 321.466 77.2728ZM333.088 70.6588L329.406 82.246H325.998L331.276 67.9361H333.43L333.088 70.6588ZM336.144 82.246L332.451 70.6588L332.072 67.9361H334.253L339.551 82.246H336.144ZM335.988 76.9192V79.3958H328.556V76.9192H335.988ZM350.303 73.6957V76.1722H342.919V73.6957H350.303ZM343.928 67.9361V82.246H340.737V67.9361H343.928ZM352.505 67.9361V82.246H349.324V67.9361H352.505ZM363.071 77.4499H366.245C366.191 78.4325 365.923 79.3009 365.442 80.0543C364.965 80.8013 364.304 81.3878 363.454 81.8135C362.607 82.2327 361.597 82.4425 360.429 82.4425C359.494 82.4425 358.66 82.282 357.922 81.9611C357.183 81.6398 356.557 81.1811 356.042 80.5851C355.534 79.9823 355.141 79.2581 354.866 78.4132C354.599 77.5611 354.463 76.6013 354.463 75.5334V74.6585C354.463 73.5906 354.606 72.6308 354.887 71.7791C355.168 70.9274 355.568 70.2001 356.089 69.5973C356.611 68.9945 357.238 68.5324 357.969 68.2115C358.701 67.8905 359.517 67.7297 360.418 67.7297C361.631 67.7297 362.658 67.9493 363.494 68.3883C364.328 68.8272 364.975 69.43 365.432 70.1967C365.896 70.9634 366.174 71.8379 366.265 72.8208H363.081C363.057 72.2639 362.952 71.7954 362.769 71.4153C362.586 71.0287 362.305 70.7373 361.926 70.5408C361.547 70.3443 361.045 70.2457 360.418 70.2457C359.961 70.2457 359.561 70.331 359.213 70.5014C358.874 70.6717 358.589 70.9372 358.362 71.2973C358.139 71.6577 357.973 72.1164 357.864 72.6733C357.753 73.2237 357.695 73.8789 357.695 74.6392V75.5334C357.695 76.2868 357.746 76.9389 357.844 77.489C357.942 78.0395 358.098 78.4948 358.311 78.8552C358.535 79.2156 358.82 79.4842 359.165 79.6613C359.511 79.8381 359.931 79.9265 360.429 79.9265C360.998 79.9265 361.469 79.8381 361.848 79.6613C362.227 79.4777 362.519 79.2026 362.719 78.8358C362.922 78.4686 363.04 78.0069 363.071 77.4499ZM379.815 67.9361V82.246H376.624V70.4228H371.201V82.246H368.017V67.9361H379.815ZM394.063 74.7765V75.4154C394.063 76.503 393.914 77.4792 393.613 78.3441C393.318 79.2091 392.898 79.9462 392.349 80.5555C391.807 81.1648 391.163 81.6333 390.411 81.9611C389.666 82.282 388.84 82.4425 387.935 82.4425C387.027 82.4425 386.197 82.282 385.445 81.9611C384.697 81.6333 384.043 81.1648 383.487 80.5555C382.939 79.9462 382.515 79.2091 382.214 78.3441C381.916 77.4792 381.767 76.503 381.767 75.4154V74.7765C381.767 73.6889 381.916 72.7127 382.214 71.8478C382.515 70.9763 382.935 70.2362 383.477 69.6265C384.026 69.0173 384.676 68.5521 385.428 68.2312C386.177 67.9034 387.007 67.7395 387.915 67.7395C388.823 67.7395 389.649 67.9034 390.401 68.2312C391.153 68.5521 391.797 69.0173 392.339 69.6265C392.888 70.2362 393.314 70.9763 393.613 71.8478C393.914 72.7127 394.063 73.6889 394.063 74.7765ZM390.842 75.4154V74.7568C390.842 74.0295 390.777 73.3876 390.645 72.8307C390.516 72.2673 390.327 71.7954 390.079 71.4153C389.829 71.0355 389.524 70.7502 389.158 70.5602C388.792 70.3637 388.379 70.2654 387.915 70.2654C387.43 70.2654 387.01 70.3637 386.651 70.5602C386.292 70.7502 385.987 71.0355 385.74 71.4153C385.5 71.7954 385.313 72.2673 385.181 72.8307C385.059 73.3876 384.995 74.0295 384.995 74.7568V75.4154C384.995 76.1362 385.059 76.7781 385.181 77.3418C385.313 77.8987 385.503 78.3703 385.75 78.7569C385.997 79.1435 386.302 79.4352 386.661 79.6317C387.027 79.8282 387.451 79.9265 387.935 79.9265C388.396 79.9265 388.809 79.8282 389.168 79.6317C389.534 79.4352 389.839 79.1435 390.09 78.7569C390.337 78.3703 390.523 77.8987 390.645 77.3418C390.777 76.7781 390.842 76.1362 390.842 75.4154ZM401.641 77.2728H398.06V74.7864H401.641C402.173 74.7864 402.596 74.698 402.915 74.5212C403.243 74.344 403.48 74.1016 403.629 73.7939C403.789 73.4794 403.867 73.1255 403.867 72.7324C403.867 72.3261 403.789 71.9494 403.629 71.6023C403.48 71.2483 403.243 70.9634 402.915 70.7472C402.596 70.5309 402.173 70.4228 401.641 70.4228H399.216V82.246H396.021V67.9361H401.641C402.779 67.9361 403.751 68.1428 404.561 68.5555C405.377 68.9683 406.001 69.5351 406.431 70.2555C406.868 70.9699 407.088 71.7889 407.088 72.7127C407.088 73.6365 406.868 74.4392 406.431 75.1206C406.001 75.802 405.377 76.3327 404.561 76.7128C403.751 77.0861 402.779 77.2728 401.641 77.2728ZM415.665 67.9361V82.246H412.481V67.9361H415.665ZM420.001 67.9361V70.4228H408.233V67.9361H420.001ZM426.387 70.6588L422.704 82.246H419.297L424.574 67.9361H426.729L426.387 70.6588ZM429.442 82.246L425.75 70.6588L425.367 67.9361H427.552L432.85 82.246H429.442ZM429.286 76.9192V79.3958H421.854V76.9192H429.286Z" fill="url(#paint1_linear_456_339)"/>
<path d="M83.5667 92.7017L80.3638 102.782H77.3994L81.9908 90.3336H83.8648L83.5667 92.7017ZM86.2242 102.782L83.0128 92.7017L82.6805 90.3336H84.5802L89.1886 102.782H86.2242ZM86.088 98.1481V100.303H79.6226V98.1481H86.088ZM95.177 97.4042H91.9911L91.9741 95.5403H94.6062C95.072 95.5403 95.4497 95.4832 95.7393 95.3693C96.0347 95.2554 96.2505 95.0902 96.3867 94.8736C96.5229 94.6512 96.5913 94.3775 96.5913 94.0525C96.5913 93.6822 96.5229 93.383 96.3867 93.1549C96.2505 92.9267 96.0347 92.7615 95.7393 92.6592C95.4497 92.5507 95.0751 92.4966 94.615 92.4966H92.9965V102.782H90.2194V90.3336H94.615C95.3589 90.3336 96.0232 90.4019 96.6082 90.5386C97.1933 90.6756 97.6899 90.8864 98.0991 91.1713C98.5134 91.4562 98.8287 91.8126 99.0445 92.2399C99.2603 92.6677 99.368 93.1719 99.368 93.7533C99.368 94.2606 99.2546 94.7338 99.0273 95.1728C98.8061 95.6114 98.4483 95.9677 97.9541 96.2414C97.4602 96.5151 96.7983 96.663 95.9694 96.6861L95.177 97.4042ZM95.0662 102.782H91.2841L92.2895 100.627H95.0662C95.4924 100.627 95.8386 100.559 96.1055 100.422C96.3725 100.285 96.5686 100.1 96.6933 99.8665C96.8183 99.6329 96.8809 99.3708 96.8809 99.0801C96.8809 98.738 96.8213 98.4415 96.7017 98.1906C96.5883 97.94 96.4067 97.7462 96.1567 97.6092C95.9124 97.4725 95.5859 97.4042 95.177 97.4042H92.6896L92.7069 95.5403H95.7478L96.3952 96.2757C97.1844 96.2584 97.8149 96.3866 98.2864 96.6603C98.7634 96.9282 99.1069 97.2814 99.3169 97.7204C99.5272 98.1593 99.6323 98.6238 99.6323 99.1141C99.6323 99.9236 99.4592 100.602 99.1126 101.149C98.7661 101.691 98.2522 102.098 97.5706 102.372C96.8948 102.645 96.0601 102.782 95.0662 102.782ZM106.967 90.3336V102.782H104.198V90.3336H106.967ZM110.74 90.3336V92.4966H100.501V90.3336H110.74ZM122.214 96.2842V96.8398C122.214 97.786 122.084 98.6353 121.822 99.3878C121.567 100.14 121.201 100.781 120.724 101.311C120.252 101.842 119.69 102.249 119.037 102.534C118.39 102.813 117.671 102.953 116.882 102.953C116.092 102.953 115.371 102.813 114.718 102.534C114.065 102.249 113.497 101.842 113.015 101.311C112.538 100.781 112.168 100.14 111.907 99.3878C111.646 98.6353 111.515 97.786 111.515 96.8398V96.2842C111.515 95.338 111.646 94.4887 111.907 93.7363C112.168 92.9781 112.535 92.3341 113.006 91.8041C113.483 91.274 114.048 90.8694 114.701 90.5899C115.354 90.305 116.076 90.1625 116.865 90.1625C117.654 90.1625 118.376 90.305 119.028 90.5899C119.682 90.8694 120.244 91.274 120.715 91.8041C121.192 92.3341 121.561 92.9781 121.822 93.7363C122.084 94.4887 122.214 95.338 122.214 96.2842ZM119.412 96.8398V96.2669C119.412 95.6345 119.355 95.0759 119.241 94.5914C119.128 94.1011 118.963 93.6907 118.748 93.3602C118.532 93.0294 118.265 92.7816 117.947 92.6163C117.629 92.4453 117.268 92.3596 116.865 92.3596C116.445 92.3596 116.078 92.4453 115.766 92.6163C115.454 92.7816 115.19 93.0294 114.974 93.3602C114.764 93.6907 114.602 94.1011 114.488 94.5914C114.38 95.0759 114.327 95.6345 114.327 96.2669V96.8398C114.327 97.4668 114.38 98.0254 114.488 98.5157C114.602 99.0002 114.767 99.4105 114.982 99.7468C115.198 100.083 115.462 100.337 115.774 100.508C116.092 100.679 116.462 100.764 116.882 100.764C117.285 100.764 117.643 100.679 117.955 100.508C118.273 100.337 118.54 100.083 118.756 99.7468C118.972 99.4105 119.134 99.0002 119.241 98.5157C119.355 98.0254 119.412 97.4668 119.412 96.8398ZM128.808 98.4558H125.69V96.2927H128.808C129.267 96.2927 129.637 96.2159 129.915 96.0619C130.199 95.9079 130.406 95.6971 130.537 95.4291C130.673 95.1554 130.741 94.8477 130.741 94.5057C130.741 94.1524 130.673 93.8247 130.537 93.5224C130.406 93.2147 130.199 92.9669 129.915 92.7788C129.637 92.5905 129.267 92.4966 128.808 92.4966H126.695V102.782H123.918V90.3336H128.808C129.796 90.3336 130.642 90.5131 131.346 90.8721C132.056 91.2312 132.598 91.7242 132.973 92.3511C133.353 92.9726 133.544 93.6849 133.544 94.4887C133.544 95.2925 133.353 95.9905 132.973 96.5834C132.598 97.1761 132.056 97.6378 131.346 97.9686C130.642 98.2933 129.796 98.4558 128.808 98.4558ZM137.871 98.4728L142.599 90.3336H145.367V102.782H142.599V94.6512L137.871 102.782H135.103V90.3336H137.871V98.4728ZM152.216 96.8228H150.189V95.3863H151.739C152.154 95.3863 152.486 95.321 152.736 95.1898C152.991 95.0585 153.176 94.8705 153.29 94.6254C153.409 94.3802 153.468 94.0953 153.468 93.7706C153.468 93.5081 153.4 93.2688 153.264 93.0522C153.133 92.8298 152.932 92.6534 152.659 92.5221C152.386 92.3912 152.037 92.3256 151.611 92.3256C151.282 92.3256 150.984 92.3797 150.717 92.4881C150.45 92.5963 150.24 92.7561 150.087 92.9669C149.933 93.1719 149.857 93.4228 149.857 93.7193H147.088C147.088 93.1607 147.207 92.6646 147.446 92.2314C147.69 91.7925 148.019 91.4222 148.434 91.12C148.854 90.8123 149.337 90.5787 149.882 90.4189C150.427 90.2537 151.004 90.171 151.611 90.171C152.31 90.171 152.943 90.2479 153.511 90.4019C154.079 90.5501 154.567 90.7725 154.976 91.0686C155.385 91.3651 155.697 91.7357 155.913 92.1801C156.135 92.619 156.245 93.1294 156.245 93.7108C156.245 94.1382 156.149 94.54 155.956 94.9161C155.768 95.2925 155.496 95.6229 155.138 95.9079C154.786 96.1928 154.36 96.4182 153.86 96.5834C153.366 96.7429 152.818 96.8228 152.216 96.8228ZM150.189 96.0619H152.216C152.886 96.0619 153.483 96.1329 154.005 96.2757C154.527 96.4182 154.967 96.6263 155.325 96.8996C155.689 97.1733 155.964 97.5123 156.152 97.9173C156.345 98.3161 156.441 98.7751 156.441 99.2936C156.441 99.875 156.322 100.394 156.084 100.85C155.845 101.3 155.507 101.682 155.07 101.996C154.638 102.309 154.127 102.545 153.537 102.705C152.952 102.865 152.31 102.944 151.611 102.944C151.043 102.944 150.478 102.876 149.916 102.739C149.36 102.597 148.854 102.38 148.4 102.089C147.951 101.799 147.591 101.425 147.318 100.969C147.045 100.513 146.909 99.9661 146.909 99.3279H149.686C149.686 99.6071 149.769 99.858 149.933 100.08C150.098 100.303 150.325 100.479 150.615 100.61C150.904 100.736 151.236 100.798 151.611 100.798C152.043 100.798 152.412 100.73 152.719 100.593C153.025 100.456 153.258 100.271 153.417 100.037C153.576 99.7981 153.656 99.5329 153.656 99.2422C153.656 98.9233 153.616 98.6523 153.537 98.43C153.457 98.2022 153.335 98.0196 153.17 97.8829C153.011 97.7405 152.81 97.6378 152.565 97.5752C152.327 97.5069 152.051 97.4725 151.739 97.4725H150.189V96.0619ZM168.605 96.2842V96.8398C168.605 97.786 168.475 98.6353 168.214 99.3878C167.958 100.14 167.592 100.781 167.115 101.311C166.643 101.842 166.081 102.249 165.428 102.534C164.781 102.813 164.062 102.953 163.273 102.953C162.484 102.953 161.762 102.813 161.109 102.534C160.456 102.249 159.888 101.842 159.406 101.311C158.929 100.781 158.56 100.14 158.298 99.3878C158.037 98.6353 157.906 97.786 157.906 96.8398V96.2842C157.906 95.338 158.037 94.4887 158.298 93.7363C158.56 92.9781 158.926 92.3341 159.397 91.8041C159.874 91.274 160.439 90.8694 161.092 90.5899C161.745 90.305 162.467 90.1625 163.256 90.1625C164.045 90.1625 164.766 90.305 165.42 90.5899C166.073 90.8694 166.635 91.274 167.106 91.8041C167.583 92.3341 167.952 92.9781 168.214 93.7363C168.475 94.4887 168.605 95.338 168.605 96.2842ZM165.803 96.8398V96.2669C165.803 95.6345 165.746 95.0759 165.633 94.5914C165.519 94.1011 165.354 93.6907 165.138 93.3602C164.923 93.0294 164.656 92.7816 164.338 92.6163C164.02 92.4453 163.659 92.3596 163.256 92.3596C162.836 92.3596 162.469 92.4453 162.157 92.6163C161.845 92.7816 161.58 93.0294 161.365 93.3602C161.155 93.6907 160.993 94.1011 160.879 94.5914C160.772 95.0759 160.717 95.6345 160.717 96.2669V96.8398C160.717 97.4668 160.772 98.0254 160.879 98.5157C160.993 99.0002 161.158 99.4105 161.374 99.7468C161.589 100.083 161.853 100.337 162.166 100.508C162.484 100.679 162.853 100.764 163.273 100.764C163.676 100.764 164.034 100.679 164.346 100.508C164.664 100.337 164.931 100.083 165.147 99.7468C165.363 99.4105 165.525 99.0002 165.633 98.5157C165.746 98.0254 165.803 97.4668 165.803 96.8398ZM175.267 97.4042H172.081L172.064 95.5403H174.696C175.162 95.5403 175.539 95.4832 175.829 95.3693C176.124 95.2554 176.34 95.0902 176.476 94.8736C176.613 94.6512 176.681 94.3775 176.681 94.0525C176.681 93.6822 176.613 93.383 176.476 93.1549C176.34 92.9267 176.124 92.7615 175.829 92.6592C175.539 92.5507 175.165 92.4966 174.705 92.4966H173.086V102.782H170.309V90.3336H174.705C175.449 90.3336 176.113 90.4019 176.698 90.5386C177.283 90.6756 177.78 90.8864 178.189 91.1713C178.603 91.4562 178.918 91.8126 179.134 92.2399C179.35 92.6677 179.458 93.1719 179.458 93.7533C179.458 94.2606 179.344 94.7338 179.117 95.1728C178.896 95.6114 178.538 95.9677 178.044 96.2414C177.55 96.5151 176.888 96.663 176.059 96.6861L175.267 97.4042ZM175.156 102.782H171.374L172.379 100.627H175.156C175.582 100.627 175.929 100.559 176.195 100.422C176.462 100.285 176.658 100.1 176.783 99.8665C176.908 99.6329 176.971 99.3708 176.971 99.0801C176.971 98.738 176.911 98.4415 176.792 98.1906C176.678 97.94 176.496 97.7462 176.246 97.6092C176.002 97.4725 175.676 97.4042 175.267 97.4042H172.78L172.797 95.5403H175.837L176.485 96.2757C177.274 96.2584 177.905 96.3866 178.376 96.6603C178.853 96.9282 179.197 97.2814 179.407 97.7204C179.617 98.1593 179.722 98.6238 179.722 99.1141C179.722 99.9236 179.549 100.602 179.202 101.149C178.856 101.691 178.342 102.098 177.661 102.372C176.985 102.645 176.15 102.782 175.156 102.782ZM186.673 92.7017L183.47 102.782H180.506L185.097 90.3336H186.971L186.673 92.7017ZM189.331 102.782L186.119 92.7017L185.787 90.3336H187.687L192.295 102.782H189.331ZM189.194 98.1481V100.303H182.729V98.1481H189.194ZM201.648 95.3438V97.498H195.225V95.3438H201.648ZM196.103 90.3336V102.782H193.326V90.3336H196.103ZM203.565 90.3336V102.782H200.797V90.3336H203.565ZM213.949 95.3438V97.498H207.526V95.3438H213.949ZM208.403 90.3336V102.782H205.626V90.3336H208.403ZM215.866 90.3336V102.782H213.097V90.3336H215.866ZM223.234 92.7017L220.031 102.782H217.066L221.658 90.3336H223.532L223.234 92.7017ZM225.892 102.782L222.68 92.7017L222.348 90.3336H224.248L228.856 102.782H225.892ZM225.755 98.1481V100.303H219.29V98.1481H225.755ZM236.412 98.3361H233.073L232.204 97.9771C231.21 97.6636 230.452 97.1961 229.929 96.5749C229.407 95.948 229.146 95.1527 229.146 94.1895C229.146 93.3402 229.333 92.6306 229.708 92.0604C230.088 91.4906 230.625 91.0601 231.318 90.7694C232.011 90.4787 232.831 90.3336 233.78 90.3336H238.192V102.782H235.407V92.4966H233.78C233.132 92.4966 232.658 92.6619 232.357 92.9924C232.062 93.3232 231.914 93.7961 231.914 94.4119C231.914 94.8678 231.982 95.2381 232.118 95.5233C232.26 95.8025 232.468 96.0078 232.74 96.1387C233.018 96.2642 233.362 96.3267 233.771 96.3267H236.403L236.412 98.3361ZM234.035 97.2587L231.343 102.782H228.328L231.011 97.2587H234.035ZM245.731 90.3336H248.031L251.012 99.2337L253.985 90.3336H256.285L251.941 102.782H250.075L245.731 90.3336ZM244.402 90.3336H246.745L247.179 99.5588V102.782H244.402V90.3336ZM255.271 90.3336H257.623V102.782H254.837V99.5588L255.271 90.3336ZM264.991 92.7017L261.788 102.782H258.823L263.415 90.3336H265.289L264.991 92.7017ZM267.649 102.782L264.437 92.7017L264.105 90.3336H266.005L270.613 102.782H267.649ZM267.512 98.1481V100.303H261.047V98.1481H267.512ZM278.603 98.6098H281.363C281.318 99.4646 281.085 100.22 280.665 100.875C280.25 101.525 279.674 102.035 278.935 102.406C278.197 102.77 277.32 102.953 276.303 102.953C275.491 102.953 274.764 102.813 274.122 102.534C273.481 102.255 272.936 101.856 272.487 101.337C272.044 100.813 271.703 100.183 271.465 99.4476C271.232 98.7067 271.116 97.8717 271.116 96.9425V96.1816C271.116 95.2523 271.238 94.4173 271.482 93.6764C271.726 92.9356 272.075 92.3028 272.53 91.7782C272.984 91.2539 273.529 90.8521 274.165 90.5729C274.801 90.2934 275.511 90.154 276.295 90.154C277.351 90.154 278.243 90.3448 278.97 90.7266C279.697 91.1088 280.259 91.633 280.656 92.2998C281.059 92.9669 281.301 93.7278 281.38 94.5829H278.612C278.589 94.0984 278.498 93.6907 278.339 93.3602C278.18 93.0236 277.936 92.77 277.606 92.5993C277.277 92.4283 276.84 92.3426 276.295 92.3426C275.897 92.3426 275.548 92.4167 275.247 92.565C274.952 92.7132 274.705 92.9441 274.506 93.2576C274.313 93.571 274.168 93.9699 274.072 94.4544C273.975 94.9334 273.927 95.5033 273.927 96.1646V96.9425C273.927 97.598 273.969 98.1651 274.054 98.6438C274.14 99.1226 274.276 99.5187 274.463 99.8321C274.656 100.146 274.904 100.38 275.204 100.533C275.506 100.687 275.872 100.764 276.303 100.764C276.797 100.764 277.209 100.687 277.538 100.533C277.868 100.374 278.121 100.134 278.296 99.8151C278.473 99.4959 278.575 99.094 278.603 98.6098ZM288.424 90.3336V102.782H285.657V90.3336H288.424ZM292.198 90.3336V92.4966H281.959V90.3336H292.198ZM302.005 100.627V102.782H295.402V100.627H302.005ZM296.347 90.3336V102.782H293.57V90.3336H296.347ZM301.151 95.3438V97.4297H295.402V95.3438H301.151ZM302.011 90.3336V92.4966H295.402V90.3336H302.011ZM308.255 98.4558H305.138V96.2927H308.255C308.715 96.2927 309.084 96.2159 309.362 96.0619C309.647 95.9079 309.853 95.6971 309.986 95.4291C310.121 95.1554 310.189 94.8477 310.189 94.5057C310.189 94.1524 310.121 93.8247 309.986 93.5224C309.853 93.2147 309.647 92.9669 309.362 92.7788C309.084 92.5905 308.715 92.4966 308.255 92.4966H306.144V102.782H303.366V90.3336H308.255C309.244 90.3336 310.091 90.5131 310.795 90.8721C311.503 91.2312 312.045 91.7242 312.421 92.3511C312.801 92.9726 312.99 93.6849 312.99 94.4887C312.99 95.2925 312.801 95.9905 312.421 96.5834C312.045 97.1761 311.503 97.6378 310.795 97.9686C310.091 98.2933 309.244 98.4558 308.255 98.4558ZM321.808 98.6098H324.569C324.521 99.4646 324.291 100.22 323.871 100.875C323.454 101.525 322.878 102.035 322.14 102.406C321.401 102.77 320.524 102.953 319.508 102.953C318.695 102.953 317.97 102.813 317.326 102.534C316.686 102.255 316.141 101.856 315.693 101.337C315.25 100.813 314.908 100.183 314.67 99.4476C314.437 98.7067 314.322 97.8717 314.322 96.9425V96.1816C314.322 95.2523 314.443 94.4173 314.687 93.6764C314.931 92.9356 315.28 92.3028 315.734 91.7782C316.188 91.2539 316.733 90.8521 317.37 90.5729C318.007 90.2934 318.715 90.154 319.501 90.154C320.555 90.154 321.449 90.3448 322.174 90.7266C322.902 91.1088 323.464 91.633 323.861 92.2998C324.264 92.9669 324.504 93.7278 324.586 94.5829H321.818C321.794 94.0984 321.703 93.6907 321.544 93.3602C321.384 93.0236 321.141 92.77 320.812 92.5993C320.483 92.4283 320.046 92.3426 319.501 92.3426C319.101 92.3426 318.752 92.4167 318.451 92.565C318.156 92.7132 317.909 92.9441 317.712 93.2576C317.519 93.571 317.374 93.9699 317.275 94.4544C317.181 94.9334 317.133 95.5033 317.133 96.1646V96.9425C317.133 97.598 317.174 98.1651 317.258 98.6438C317.343 99.1226 317.482 99.5187 317.668 99.8321C317.861 100.146 318.109 100.38 318.41 100.533C318.712 100.687 319.078 100.764 319.508 100.764C320.002 100.764 320.416 100.687 320.744 100.533C321.073 100.374 321.327 100.134 321.503 99.8151C321.679 99.4959 321.781 99.094 321.808 98.6098ZM328.878 90.3336V102.782H326.11V90.3336H328.878ZM336.11 90.3336L331.503 97.7462H328.332L327.993 95.2581H330.053L332.753 90.3336H336.11ZM333.241 102.782L330.053 97.276L332.021 95.3608L336.527 102.782H333.241ZM342.543 92.7017L339.338 102.782H336.374L340.968 90.3336H342.841L342.543 92.7017ZM345.199 102.782L341.987 92.7017L341.655 90.3336H343.556L348.163 102.782H345.199ZM345.063 98.1481V100.303H338.6V98.1481H345.063ZM355.72 98.3361H352.38L351.513 97.9771C350.517 97.6636 349.762 97.1961 349.236 96.5749C348.715 95.948 348.454 95.1527 348.454 94.1895C348.454 93.3402 348.64 92.6306 349.016 92.0604C349.396 91.4906 349.934 91.0601 350.625 90.7694C351.32 90.4787 352.14 90.3336 353.088 90.3336H357.502V102.782H354.714V92.4966H353.088C352.441 92.4966 351.967 92.6619 351.665 92.9924C351.371 93.3232 351.222 93.7961 351.222 94.4119C351.222 94.8678 351.289 95.2381 351.428 95.5233C351.567 95.8025 351.777 96.0078 352.048 96.1387C352.326 96.2642 352.671 96.3267 353.078 96.3267H355.71L355.72 98.3361ZM353.342 97.2587L350.652 102.782H347.638L350.32 97.2587H353.342ZM368.599 98.4558H365.483V96.2927H368.599C369.06 96.2927 369.429 96.2159 369.707 96.0619C369.992 95.9079 370.198 95.6971 370.33 95.4291C370.466 95.1554 370.534 94.8477 370.534 94.5057C370.534 94.1524 370.466 93.8247 370.33 93.5224C370.198 93.2147 369.992 92.9669 369.707 92.7788C369.429 92.5905 369.06 92.4966 368.599 92.4966H366.486V102.782H363.711V90.3336H368.599C369.589 90.3336 370.435 90.5131 371.137 90.8721C371.848 91.2312 372.39 91.7242 372.766 92.3511C373.145 92.9726 373.335 93.6849 373.335 94.4887C373.335 95.2925 373.145 95.9905 372.766 96.5834C372.39 97.1761 371.848 97.6378 371.137 97.9686C370.435 98.2933 369.589 98.4558 368.599 98.4558ZM379.785 91.4192H382.715C383.457 91.4192 384.145 91.5419 384.768 91.7871C385.398 92.0319 385.947 92.3824 386.411 92.8387C386.878 93.2946 387.237 93.8417 387.495 94.4802C387.749 95.1184 387.878 95.8337 387.878 96.6263C387.878 97.3957 387.749 98.0937 387.495 98.7207C387.237 99.3422 386.878 99.878 386.411 100.328C385.947 100.773 385.398 101.115 384.768 101.354C384.145 101.588 383.457 101.705 382.715 101.705H379.785C379.036 101.705 378.345 101.588 377.715 101.354C377.085 101.115 376.533 100.773 376.062 100.328C375.595 99.8835 375.236 99.3507 374.981 98.7295C374.724 98.108 374.595 97.4127 374.595 96.6433C374.595 95.8511 374.724 95.1357 374.981 94.4972C375.236 93.8587 375.595 93.3089 376.062 92.8472C376.533 92.3855 377.085 92.0319 377.715 91.7871C378.345 91.5419 379.036 91.4192 379.785 91.4192ZM379.785 93.6509C379.284 93.6509 378.84 93.7618 378.447 93.9841C378.061 94.2065 377.756 94.54 377.536 94.9844C377.319 95.4234 377.21 95.9762 377.21 96.6433C377.21 97.1104 377.275 97.5239 377.4 97.8829C377.529 98.2362 377.712 98.5299 377.946 98.7635C378.183 98.9971 378.457 99.1739 378.772 99.2936C379.084 99.4132 379.423 99.4731 379.785 99.4731H382.732C383.227 99.4731 383.66 99.3677 384.036 99.1569C384.416 98.9403 384.714 98.6183 384.931 98.1906C385.144 97.7632 385.252 97.2417 385.252 96.6263C385.252 96.1302 385.191 95.6971 385.066 95.3265C384.941 94.9562 384.765 94.6482 384.538 94.403C384.317 94.1524 384.053 93.9644 383.745 93.839C383.44 93.7135 383.101 93.6509 382.732 93.6509H379.785ZM382.58 89.8205V103.295H379.92V89.8205H382.58ZM399.751 90.3251V102.782H397.085V93.3687L394.206 94.2493V92.1801L399.487 90.3251H399.751ZM412.129 95.4461V97.6606C412.129 98.5728 412.027 99.3619 411.821 100.029C411.624 100.696 411.333 101.246 410.953 101.679C410.577 102.112 410.13 102.434 409.609 102.645C409.09 102.85 408.518 102.953 407.888 102.953C407.38 102.953 406.909 102.887 406.472 102.756C406.035 102.625 405.642 102.423 405.289 102.149C404.941 101.87 404.642 101.522 404.395 101.106C404.145 100.69 403.951 100.194 403.816 99.6186C403.684 99.043 403.619 98.3902 403.619 97.6606V95.4461C403.619 94.5227 403.718 93.7305 403.918 93.0695C404.121 92.4082 404.416 91.8612 404.795 91.4277C405.174 90.9945 405.625 90.6756 406.14 90.4702C406.661 90.2652 407.241 90.1625 407.871 90.1625C408.375 90.1625 408.843 90.2282 409.277 90.3591C409.714 90.4903 410.107 90.6926 410.459 90.9663C410.811 91.2397 411.109 91.5844 411.353 92.0006C411.604 92.4167 411.793 92.9128 411.926 93.4884C412.061 94.0583 412.129 94.7111 412.129 95.4461ZM409.47 97.9941V95.0956C409.47 94.6682 409.446 94.2976 409.395 93.9841C409.348 93.6649 409.28 93.3942 409.188 93.1719C409.104 92.9499 408.995 92.77 408.867 92.6333C408.735 92.4966 408.585 92.3967 408.416 92.3341C408.25 92.2658 408.067 92.2314 407.871 92.2314C407.62 92.2314 407.396 92.2828 407.197 92.3855C406.997 92.4881 406.831 92.6503 406.695 92.8727C406.556 93.0893 406.451 93.383 406.38 93.7533C406.309 94.1181 406.275 94.5655 406.275 95.0956V97.9941C406.275 98.4215 406.299 98.7948 406.346 99.1141C406.397 99.4333 406.465 99.707 406.55 99.9348C406.641 100.157 406.749 100.339 406.882 100.482C407.01 100.619 407.163 100.719 407.332 100.781C407.505 100.844 407.688 100.875 407.888 100.875C408.135 100.875 408.359 100.827 408.552 100.73C408.745 100.627 408.907 100.465 409.046 100.243C409.188 100.015 409.293 99.7155 409.361 99.3449C409.432 98.9743 409.47 98.5242 409.47 97.9941ZM422.291 100.704V102.782H413.721V101.021L417.725 96.763C418.101 96.3298 418.399 95.948 418.619 95.6172C418.846 95.2867 419.012 94.9875 419.114 94.7196C419.216 94.4459 419.266 94.1953 419.266 93.9671C419.266 93.5965 419.209 93.2831 419.087 93.0267C418.975 92.77 418.806 92.5735 418.585 92.4368C418.365 92.2998 418.094 92.2314 417.776 92.2314C417.437 92.2314 417.142 92.3198 416.898 92.4966C416.655 92.6731 416.468 92.9182 416.336 93.2317C416.207 93.5398 416.14 93.8903 416.14 94.2833H413.467C413.467 93.5255 413.646 92.8356 414.012 92.2144C414.375 91.5875 414.883 91.0887 415.537 90.7181C416.19 90.3421 416.953 90.154 417.827 90.154C418.724 90.154 419.476 90.2965 420.086 90.5814C420.692 90.8663 421.153 91.274 421.465 91.8041C421.776 92.3341 421.932 92.9726 421.932 93.7193C421.932 94.1409 421.864 94.5485 421.729 94.9419C421.597 95.335 421.407 95.7256 421.157 96.1132C420.909 96.5008 420.608 96.8969 420.255 97.3015C419.903 97.7007 419.507 98.1223 419.063 98.567L417.19 100.704H422.291ZM430.188 90.1795H430.598V92.2998H430.442C429.845 92.2998 429.3 92.3855 428.809 92.5565C428.318 92.7275 427.898 92.9811 427.539 93.3174C427.179 93.6479 426.905 94.0583 426.712 94.5485C426.526 95.033 426.431 95.5916 426.431 96.2244V98.3446C426.431 98.772 426.468 99.1453 426.543 99.4646C426.621 99.7781 426.736 100.04 426.881 100.251C427.037 100.456 427.22 100.613 427.437 100.722C427.65 100.824 427.898 100.875 428.169 100.875C428.413 100.875 428.636 100.821 428.843 100.713C429.046 100.605 429.222 100.451 429.371 100.251C429.517 100.052 429.632 99.8209 429.71 99.5588C429.791 99.2909 429.829 99.0002 429.829 98.6867C429.829 98.3562 429.788 98.0566 429.703 97.7887C429.622 97.5154 429.507 97.2815 429.354 97.0877C429.205 96.8939 429.022 96.746 428.809 96.6433C428.592 96.5348 428.355 96.4808 428.091 96.4808C427.718 96.4808 427.393 96.5664 427.122 96.7371C426.848 96.9081 426.638 97.1278 426.492 97.3957C426.343 97.6636 426.265 97.937 426.262 98.2165L425.554 97.6266C425.554 97.239 425.631 96.8568 425.784 96.4808C425.943 96.0989 426.167 95.7542 426.458 95.4461C426.746 95.1327 427.102 94.8848 427.522 94.7026C427.948 94.5142 428.433 94.4204 428.978 94.4204C429.551 94.4204 430.056 94.5315 430.496 94.7536C430.933 94.9701 431.299 95.2724 431.593 95.66C431.895 96.0476 432.118 96.5008 432.268 97.0193C432.42 97.5324 432.495 98.0825 432.495 98.6697C432.495 99.2739 432.389 99.8379 432.179 100.363C431.976 100.881 431.688 101.334 431.312 101.722C430.936 102.109 430.489 102.411 429.967 102.628C429.449 102.845 428.873 102.953 428.236 102.953C427.579 102.953 426.976 102.836 426.431 102.602C425.892 102.369 425.421 102.035 425.018 101.602C424.619 101.163 424.31 100.639 424.09 100.029C423.873 99.419 423.765 98.735 423.765 97.9771V96.9768C423.765 95.9391 423.924 95.0045 424.243 94.1722C424.564 93.3402 425.015 92.6275 425.587 92.0349C426.167 91.4365 426.848 90.9775 427.633 90.6583C428.416 90.339 429.266 90.1795 430.188 90.1795Z" fill="black"/>
<path d="M48.9425 71.6492L30.9776 89.6804L13.0126 71.6492C9.45948 68.0829 7.03979 63.5392 6.05944 58.5925C5.0791 53.6462 5.58248 48.519 7.50523 43.8596C9.42831 39.1999 12.6847 35.2175 16.8625 32.4155C21.0407 29.6135 25.9525 28.118 30.9776 28.118C36.0026 28.118 40.9144 29.6135 45.0926 32.4155C49.2704 35.2175 52.5268 39.1999 54.4499 43.8596C56.3726 48.519 56.876 53.6462 55.8957 58.5925C54.9153 63.5392 52.4956 68.0829 48.9425 71.6492ZM30.9776 59.2844C32.4748 59.2844 33.9111 58.6874 34.9697 57.6245C36.0287 56.562 36.6235 55.1208 36.6235 53.6176C36.6235 52.1148 36.0287 50.6736 34.9697 49.6107C33.9111 48.5482 32.4748 47.9512 30.9776 47.9512C29.4803 47.9512 28.0443 48.5482 26.9854 49.6107C25.9265 50.6736 25.3316 52.1148 25.3316 53.6176C25.3316 55.1208 25.9265 56.562 26.9854 57.6245C28.0443 58.6874 29.4803 59.2844 30.9776 59.2844Z" fill="#067BCD"/>
<path fill-rule="evenodd" clip-rule="evenodd" d="M6.00866 59.0005C6.63975 62.1843 7.8667 65.2011 9.60889 67.898C13.6607 74.171 48.9794 71.7686 54.4868 43.979C52.5638 39.3196 49.2196 35.6255 45.0418 32.8235C40.8637 30.0216 35.9518 28.526 30.9268 28.526C25.9018 28.526 20.9899 30.0216 16.8117 32.8235C12.6339 35.6255 9.37753 39.608 7.45444 44.2677C5.5317 48.927 5.02832 54.0542 6.00866 59.0005ZM34.9189 58.0326C33.8604 59.0954 32.424 59.6924 30.9268 59.6924C29.4295 59.6924 27.9935 59.0954 26.9346 58.0326C25.8757 56.9701 25.2808 55.5288 25.2808 54.0257C25.2808 52.5229 25.8757 51.0816 26.9346 50.0188C27.9935 48.9563 29.4295 48.3592 30.9268 48.3592C32.424 48.3592 33.8604 48.9563 34.9189 50.0188C35.9779 51.0816 36.5727 52.5229 36.5727 54.0257C36.5727 55.5288 35.9779 56.9701 34.9189 58.0326Z" fill="url(#paint2_linear_456_339)"/>
<path d="M12.9615 72.0572C11.6953 70.7863 10.573 69.3913 9.60857 67.898H7.45412C2.45247 74.2914 8.14348 77.1304 17.1193 76.2304L12.9615 72.0572Z" fill="white"/>
<path d="M9.60889 67.898C10.5733 69.3913 11.6956 70.7863 12.9618 72.0572L17.1197 76.2304C21.2646 75.8146 26.1104 74.6014 30.9268 72.5727C31.8272 72.1932 32.7262 71.7856 33.6198 71.349C33.6212 71.3487 33.6225 71.348 33.6239 71.3473C42.9212 66.8052 53.559 57.8452 55.2829 45.407C55.1498 45.0371 54.6372 44.3435 54.4868 43.979C48.9794 71.7686 13.6607 74.171 9.60889 67.898Z" fill="white"/>
<path fill-rule="evenodd" clip-rule="evenodd" d="M35.3058 85.6932L48.8917 72.0572C52.4448 68.4909 54.8645 63.9472 55.8449 59.0005C56.7486 54.4411 56.8503 49.7658 55.2829 45.407C53.559 57.8452 42.9212 66.8052 33.6239 71.3473C33.6225 71.348 33.6212 71.3486 33.6198 71.349L33.6239 71.3473C33.7716 71.281 33.7838 71.9787 33.8051 73.2152C33.8491 75.7516 33.9321 80.5552 35.3058 85.6932ZM27.4715 86.224C29.9444 82.0515 30.3847 79.679 30.9267 72.5726C26.1104 74.6014 21.2646 75.8145 17.1196 76.2304L27.4715 86.224Z" fill="url(#paint3_linear_456_339)"/>
<path d="M33.62 71.349C32.7264 71.7856 31.8273 72.1932 30.9269 72.5727C30.3849 79.679 29.9446 82.0515 27.4717 86.224L30.9269 90.0884L35.306 85.6932C33.9323 80.5552 33.8493 75.7516 33.8053 73.2152C33.7839 71.9787 33.7718 71.281 33.6241 71.3473L33.62 71.349Z" fill="url(#paint4_linear_456_339)"/>
<path d="M30.9605 63.206C35.2729 63.206 38.7687 59.7506 38.7687 55.488C38.7687 51.2255 35.2729 47.77 30.9605 47.77C26.6482 47.77 23.1523 51.2255 23.1523 55.488C23.1523 59.7506 26.6482 63.206 30.9605 63.206Z" fill="url(#paint5_linear_456_339)"/>
<path d="M-5.87842 40.2081H13.0181L14.4717 42.7231H-4.42484L-5.87842 40.2081ZM-3.94043 45.238H14.9561L16.41 47.753H-2.48685L-3.94043 45.238ZM27.5538 58.651C29.1626 58.651 30.461 57.5277 30.461 56.1361C30.461 54.7444 29.1626 53.6211 27.5538 53.6211C25.9455 53.6211 24.6467 54.7444 24.6467 56.1361C24.6467 57.5277 25.9455 58.651 27.5538 58.651ZM30.461 43.5615H25.6158V47.753H34.2597L30.461 43.5615ZM8.17294 58.651C9.78132 58.651 11.0801 57.5277 11.0801 56.1361C11.0801 54.7444 9.78132 53.6211 8.17294 53.6211C6.56421 53.6211 5.26578 54.7444 5.26578 56.1361C5.26578 57.5277 6.56421 58.651 8.17294 58.651ZM31.4302 41.0465L37.2445 47.753V56.1361H33.3681C33.3681 58.9193 30.7713 61.166 27.5538 61.166C24.3367 61.166 21.7395 58.9193 21.7395 56.1361H13.9872C13.9872 58.9193 11.3707 61.166 8.17294 61.166C4.95549 61.166 2.35863 58.9193 2.35863 56.1361H-1.51769V50.268H2.35863V52.783H3.83151C4.89756 51.7603 6.44802 51.1061 8.17294 51.1061C9.89785 51.1061 11.4483 51.7603 12.5144 52.783H21.7395V37.6931H-1.51769C-1.51769 35.8323 0.207228 34.34 2.35863 34.34H25.6158V41.0465H31.4302Z" fill="white"/>
<path d="M15.6659 33.49H12.8882C12.7385 33.49 12.6172 33.6118 12.6172 33.762V34.068C12.6172 34.2182 12.7385 34.34 12.8882 34.34H15.6659C15.8156 34.34 15.9369 34.2182 15.9369 34.068V33.762C15.9369 33.6118 15.8156 33.49 15.6659 33.49Z" fill="#1675C2"/>
<path d="M11.5669 37.706H7.33252C7.18285 37.706 7.06152 37.8278 7.06152 37.978V38.284C7.06152 38.4342 7.18285 38.556 7.33252 38.556H11.5669C11.7166 38.556 11.8379 38.4342 11.8379 38.284V37.978C11.8379 37.8278 11.7166 37.706 11.5669 37.706Z" fill="#2170B8"/>
<path d="M13.3626 39.61H0.964359C0.81469 39.61 0.693359 39.7318 0.693359 39.882V39.95C0.693359 40.1002 0.81469 40.222 0.964359 40.222H13.3626C13.5123 40.222 13.6336 40.1002 13.6336 39.95V39.882C13.6336 39.7318 13.5123 39.61 13.3626 39.61Z" fill="#266DB4"/>
<path d="M15.2594 42.704H0.456059C0.306389 42.704 0.185059 42.8258 0.185059 42.976V43.044C0.185059 43.1942 0.306389 43.316 0.456059 43.316H15.2594C15.4091 43.316 15.5304 43.1942 15.5304 43.044V42.976C15.5304 42.8258 15.4091 42.704 15.2594 42.704Z" fill="#2F69AD"/>
<path d="M17.4953 44.71H2.6919C2.54223 44.71 2.4209 44.8318 2.4209 44.982V45.05C2.4209 45.2002 2.54223 45.322 2.6919 45.322H17.4953C17.6449 45.322 17.7663 45.2002 17.7663 45.05V44.982C17.7663 44.8318 17.6449 44.71 17.4953 44.71Z" fill="#3667A8"/>
<path d="M19.4601 47.77H4.65674C4.50707 47.77 4.38574 47.8918 4.38574 48.042V48.11C4.38574 48.2602 4.50707 48.382 4.65674 48.382H19.4601C19.6098 48.382 19.7311 48.2602 19.7311 48.11V48.042C19.7311 47.8918 19.6098 47.77 19.4601 47.77Z" fill="#3E63A2"/>
<path d="M33.0305 91.63V107.583H29.4824V91.63H33.0305ZM37.8665 91.63V94.402H24.7446V91.63H37.8665Z" fill="url(#paint6_linear_456_339)"/>
<path d="M32.7253 91.936V107.889H29.1772V91.936H32.7253ZM37.5613 91.936V94.708H24.4395V91.936H37.5613Z" fill="url(#paint7_linear_456_339)"/>
<path d="M22.2595 95.5281L22.0414 102.113H18.7115V98.2675H17.4673V95.5281H22.2595ZM6.79053 98.2675V82.314H10.3386V95.5064H16.3863V82.314H19.956V98.2675H6.79053Z" fill="url(#paint8_linear_456_339)"/>
<path d="M21.9885 95.8001L21.7704 102.385H18.4405V98.5395H17.1963V95.8001H21.9885ZM6.51953 98.5395V82.586H10.0676V95.7783H16.1153V82.586H19.685V98.5395H6.51953Z" fill="url(#paint9_linear_456_339)"/>
<path d="M44.6721 82.28H47.6199L51.4407 93.6864L55.2506 82.28H58.1981L52.6307 98.2335H50.2398L44.6721 82.28ZM42.9692 82.28H45.9712L46.5281 94.1025V98.2335H42.9692V82.28ZM56.899 82.28H59.9122V98.2335H56.3424V94.1025L56.899 82.28Z" fill="url(#paint10_linear_456_339)"/>
<path d="M43.8928 82.484H46.8406L50.6614 93.8903L54.4713 82.484H57.4188L51.8514 98.4375H49.4605L43.8928 82.484ZM42.1899 82.484H45.1919L45.7489 94.3065V98.4375H42.1899V82.484ZM56.1197 82.484H59.1329V98.4375H55.5631V94.3065L56.1197 82.484Z" fill="url(#paint11_linear_456_339)"/>
</g>
<defs>
<linearGradient id="paint0_linear_456_339" x1="269.83" y1="23.426" x2="269.863" y2="140.593" gradientUnits="userSpaceOnUse">
<stop stop-color="#067BCD"/>
<stop offset="1"/>
</linearGradient>
<linearGradient id="paint1_linear_456_339" x1="270.595" y1="63.58" x2="270.595" y2="98.226" gradientUnits="userSpaceOnUse">
<stop stop-color="#067BCD"/>
<stop offset="1"/>
</linearGradient>
<linearGradient id="paint2_linear_456_339" x1="30.2069" y1="28.526" x2="30.2069" y2="105.298" gradientUnits="userSpaceOnUse">
<stop stop-color="#067BCD"/>
<stop offset="1" stop-color="#E01C22"/>
</linearGradient>
<linearGradient id="paint3_linear_456_339" x1="31.0097" y1="28.526" x2="31.0097" y2="90.0884" gradientUnits="userSpaceOnUse">
<stop stop-color="#067BCD"/>
<stop offset="0.71875" stop-color="#E01C22"/>
</linearGradient>
<linearGradient id="paint4_linear_456_339" x1="31.0099" y1="28.526" x2="31.0099" y2="90.0884" gradientUnits="userSpaceOnUse">
<stop stop-color="#067BCD"/>
<stop offset="0.71875" stop-color="#E01C22"/>
</linearGradient>
<linearGradient id="paint5_linear_456_339" x1="30.9775" y1="38.862" x2="30.9775" y2="90.899" gradientUnits="userSpaceOnUse">
<stop stop-color="#067BCD"/>
<stop offset="1" stop-color="#E01C22"/>
</linearGradient>
<linearGradient id="paint6_linear_456_339" x1="49.9961" y1="86.7755" x2="49.9961" y2="117.137" gradientUnits="userSpaceOnUse">
<stop stop-color="#067BCD"/>
<stop offset="1"/>
</linearGradient>
<linearGradient id="paint7_linear_456_339" x1="49.6909" y1="87.0815" x2="49.6909" y2="117.443" gradientUnits="userSpaceOnUse">
<stop stop-color="#067BCD"/>
<stop offset="1" stop-color="#E01C22"/>
</linearGradient>
<linearGradient id="paint8_linear_456_339" x1="31.376" y1="77.4595" x2="31.376" y2="107.822" gradientUnits="userSpaceOnUse">
<stop stop-color="#067BCD"/>
<stop offset="1"/>
</linearGradient>
<linearGradient id="paint9_linear_456_339" x1="31.105" y1="77.7315" x2="31.105" y2="108.093" gradientUnits="userSpaceOnUse">
<stop stop-color="#067BCD"/>
<stop offset="1" stop-color="#E01C22"/>
</linearGradient>
<linearGradient id="paint10_linear_456_339" x1="67.3365" y1="77.4255" x2="67.3365" y2="107.788" gradientUnits="userSpaceOnUse">
<stop stop-color="#067BCD"/>
<stop offset="1"/>
</linearGradient>
<linearGradient id="paint11_linear_456_339" x1="66.5572" y1="77.6295" x2="66.5572" y2="107.991" gradientUnits="userSpaceOnUse">
<stop stop-color="#067BCD"/>
<stop offset="1" stop-color="#E01C22"/>
</linearGradient>
<clipPath id="clip0_456_339">
<rect width="433" height="136" fill="white"/>
</clipPath>
</defs>
</svg>
